<svg xmlns="http://www.w3.org/2000/svg" xmlns:xlink="http://www.w3.org/1999/xlink" width="50.089mm" height="65.634mm" viewBox="3993 3036.5 197.2 258.4"><title></title><style type="text/css">
*[layerid="1"] {stroke:#000000;fill:#000000;}
*[layerid="2"] {stroke:#000000;fill:#000000;}
*[layerid="3"] {stroke:#000000;fill:#000000;}
*[layerid="4"] {stroke:#000000;fill:#000000;}
*[layerid="5"] {stroke:#000000;fill:#000000;}
*[layerid="6"] {stroke:#000000;fill:#000000;}
*[layerid="7"] {stroke:#000000;fill:#000000;}
*[layerid="8"] {stroke:#000000;fill:#000000;}
*[layerid="9"] {stroke:#000000;fill:#000000;}
*[layerid="10"] {stroke:#000000;fill:#000000;}
*[layerid="11"] {stroke:#000000;fill:#000000;}
*[layerid="12"] {stroke:#000000;fill:#000000;}
*[layerid="13"] {stroke:#000000;fill:#000000;}
*[layerid="14"] {stroke:#000000;fill:#000000;}
*[layerid="15"] {stroke:#000000;fill:#000000;}
*[layerid="19"] {stroke:#000000;fill:#000000;}
*[layerid="21"] {stroke:#000000;fill:#000000;}
*[layerid="22"] {stroke:#000000;fill:#000000;}
*[layerid="23"] {stroke:#000000;fill:#000000;}
*[layerid="24"] {stroke:#000000;fill:#000000;}
*[layerid="25"] {stroke:#000000;fill:#000000;}
*[layerid="26"] {stroke:#000000;fill:#000000;}
*[layerid="27"] {stroke:#000000;fill:#000000;}
*[layerid="28"] {stroke:#000000;fill:#000000;}
*[layerid="29"] {stroke:#000000;fill:#000000;}
*[layerid="30"] {stroke:#000000;fill:#000000;}
*[layerid="31"] {stroke:#000000;fill:#000000;}
*[layerid="32"] {stroke:#000000;fill:#000000;}
*[layerid="33"] {stroke:#000000;fill:#000000;}
*[layerid="34"] {stroke:#000000;fill:#000000;}
*[layerid="35"] {stroke:#000000;fill:#000000;}
*[layerid="36"] {stroke:#000000;fill:#000000;}
*[layerid="37"] {stroke:#000000;fill:#000000;}
*[layerid="38"] {stroke:#000000;fill:#000000;}
*[layerid="39"] {stroke:#000000;fill:#000000;}
*[layerid="40"] {stroke:#000000;fill:#000000;}
*[layerid="41"] {stroke:#000000;fill:#000000;}
*[layerid="42"] {stroke:#000000;fill:#000000;}
*[layerid="43"] {stroke:#000000;fill:#000000;}
*[layerid="44"] {stroke:#000000;fill:#000000;}
*[layerid="45"] {stroke:#000000;fill:#000000;}
*[layerid="46"] {stroke:#000000;fill:#000000;}
*[layerid="47"] {stroke:#000000;fill:#000000;}
*[layerid="48"] {stroke:#000000;fill:#000000;}
*[layerid="49"] {stroke:#000000;fill:#000000;}
*[layerid="50"] {stroke:#000000;fill:#000000;}
*[layerid="51"] {stroke:#000000;fill:#000000;}
*[layerid="52"] {stroke:#000000;fill:#000000;}
*[layerid="99"] {stroke:#000000;fill:#000000;}
*[layerid="100"] {stroke:#000000;fill:#000000;}
*[layerid="101"] {stroke:#000000;fill:#000000;}
*[layerid="Hole"] {stroke:#000000;fill:#000000;}
*[layerid="DRCError"] {stroke:#000000;fill:#000000;}
*[fill="none"] {fill: none;}
*[stroke="none"] {stroke: none;}
path, polyline, polygon, line {stroke-linecap:round;}
g[c_partid="part_pad"][layerid="1"] ellipse:not([c_etype="pad_outer"]) {fill:#000000;}
g[c_partid="part_pad"][layerid="1"] polygon:not([c_etype="pad_outer"]) {fill:#000000;}
g[c_partid="part_pad"][layerid="1"] polyline:not([c_etype="pad_outer"]) {stroke:#000000;}
g[c_partid="part_pad"][layerid="2"] ellipse:not([c_etype="pad_outer"]) {fill:#000000;}
g[c_partid="part_pad"][layerid="2"] polygon:not([c_etype="pad_outer"]) {fill:#000000;}
g[c_partid="part_pad"][layerid="2"] polyline:not([c_etype="pad_outer"]) {stroke:#000000;}
g[c_partid="part_pad"][layerid="11"] ellipse:not([c_etype="pad_outer"]) {fill:#000000;}
g[c_partid="part_pad"][layerid="11"] polygon:not([c_etype="pad_outer"]) {fill:#000000;}
g[c_partid="part_pad"][layerid="11"] polyline:not([c_etype="pad_outer"]) {stroke:#000000;}
g[c_partid="part_pad"][layerid="11"] circle {fill:#FFFFFF;}
g[c_partid="part_pad"][layerid="11"] > polyline:nth-of-type(2) {stroke:#FFFFFF;}
g[c_partid="part_pad"][layerid="11"][c_shape="ELLIPSE"]  polyline:nth-last-of-type(1) {stroke:#FFFFFF;}
g[c_partid="part_pad"][layerid="11"][c_shape="RECT"]  polyline:nth-last-of-type(1) {stroke:#FFFFFF;}
g[c_partid="part_pad"][layerid="11"][c_shape="POLYGON"]  polyline:nth-last-of-type(1) {stroke:#FFFFFF;}
g[c_partid="part_via"] > * + circle, #gCurParts g[c_partid="part_via"] > * + circle {fill:#FFFFFF;}
g[c_partid="part_pad"] > polygon[c_etype="pad_outer"], #gCurParts g[c_partid="part_pad"] > polygon[c_etype="pad_outer"] {stroke-linejoin: miter;stroke-miterlimit: 100;}
g[c_partid="part_hole"] > circle {fill: #FFFFFF;}path, polyline, polygon {stroke-linejoin:round;}
rect, circle, ellipse, polyline, line, polygon, path {shape-rendering:crispEdges;}
</style>
<rect x="3993" y="3036.5" width="197.2" height="258.4" fill="#FFFFFF" stroke="none"/><polyline points="4057.57 3129.75 4057.3 3130 4049.5 3130 4049 3130.5 4049 3230.37 4082.6 3271.5" stroke-width="3.937"  stroke-linecap="round" fill="none" layerid="1" net="U1_8" id="gge413" locked="0" /><polyline points="4096.5 3164 4096.5 3158.496 4108 3146.996" stroke-width="3.937"  stroke-linecap="round" fill="none" layerid="1" net="U1_13" id="gge418" locked="0" /><polyline points="4086.5 3164 4086.5 3158.496 4098 3146.996" stroke-width="3.937"  stroke-linecap="round" fill="none" layerid="1" net="U1_12" id="gge417" locked="0" /><polyline points="4076.5 3164 4076.5 3178 4106 3177.5 4106 3174 4106 3160.5" stroke-width="3.937"  stroke-linecap="round" fill="none" layerid="1" net="U1_11" id="gge414" locked="0" /><polyline points="4088 3146.996 4076.5 3158.496 4076.5 3164" stroke-width="3.937"  stroke-linecap="round" fill="none" layerid="1" net="U1_11" id="gge416" locked="0" /><polyline points="4123 3139.752 4120.248 3137 4078.5 3137 4078 3138 4078 3146.996" stroke-width="3.937"  stroke-linecap="round" fill="none" layerid="1" net="U1_9" id="gge412" locked="0" /><polyline points="4123 3139.752 4116.5 3146.252 4116.5 3164" stroke-width="3.937"  stroke-linecap="round" fill="none" layerid="1" net="U1_9" id="gge411" locked="0" /><polyline points="4078 3146.996 4076.811 3148.185 4066 3148.185" stroke-width="3.937"  stroke-linecap="round" fill="none" layerid="1" net="U1_9" id="gge410" locked="0" /><polyline points="4066.5 3164 4066.5 3241.6 4096.4 3271.5" stroke-width="3.937"  stroke-linecap="round" fill="none" layerid="1" net="U1_9" id="gge409" locked="0" /><polyline points="4057.5669 3139.752 4066.5 3148.6851 4066.5 3164" stroke-width="3.937"  stroke-linecap="round" fill="none" layerid="1" net="U1_9" id="gge408" locked="0" /><g c_partid="part_pad" c_etype="pinpart" c_origin="4116.5,3164" layerid="1" number="1" net="U1_9" plated ="Y"  id="gge14" locked="0" c_rotation="270" c_width="12.48" c_height="5" title="U1_9" c_shape="RECT" pasteexpansion="0" solderexpansion="0.4"><polygon  c_etype="pad_shell" points="4119 3157.76 4119 3170.24 4114 3170.24 4114 3157.76" layerid="1" stroke-width="0" /><circle c_etype="pad_hole" cx="4116.5" cy="3164" r="0" layerid="1" stroke-width="0"/></g><g c_partid="part_pad" c_etype="pinpart" c_origin="4106.5,3164" layerid="1" number="2" net="U1_11" plated ="Y"  id="gge19" locked="0" c_rotation="270" c_width="12.48" c_height="5" title="U1_11" c_shape="RECT" pasteexpansion="0" solderexpansion="0.4"><polygon  c_etype="pad_shell" points="4109 3157.76 4109 3170.24 4104 3170.24 4104 3157.76" layerid="1" stroke-width="0" /><circle c_etype="pad_hole" cx="4106.5" cy="3164" r="0" layerid="1" stroke-width="0"/></g><g c_partid="part_pad" c_etype="pinpart" c_origin="4096.5,3164" layerid="1" number="3" net="U1_13" plated ="Y"  id="gge24" locked="0" c_rotation="270" c_width="12.48" c_height="5" title="U1_13" c_shape="RECT" pasteexpansion="0" solderexpansion="0.4"><polygon  c_etype="pad_shell" points="4099 3157.76 4099 3170.24 4094 3170.24 4094 3157.76" layerid="1" stroke-width="0" /><circle c_etype="pad_hole" cx="4096.5" cy="3164" r="0" layerid="1" stroke-width="0"/></g><g c_partid="part_pad" c_etype="pinpart" c_origin="4086.5,3164" layerid="1" number="4" net="U1_12" plated ="Y"  id="gge29" locked="0" c_rotation="270" c_width="12.48" c_height="5" title="U1_12" c_shape="RECT" pasteexpansion="0" solderexpansion="0.4"><polygon  c_etype="pad_shell" points="4089 3157.76 4089 3170.24 4084 3170.24 4084 3157.76" layerid="1" stroke-width="0" /><circle c_etype="pad_hole" cx="4086.5" cy="3164" r="0" layerid="1" stroke-width="0"/></g><g c_partid="part_pad" c_etype="pinpart" c_origin="4076.5,3164" layerid="1" number="5" net="U1_11" plated ="Y"  id="gge34" locked="0" c_rotation="270" c_width="12.48" c_height="5" title="U1_11" c_shape="RECT" pasteexpansion="0" solderexpansion="0.4"><polygon  c_etype="pad_shell" points="4079 3157.76 4079 3170.24 4074 3170.24 4074 3157.76" layerid="1" stroke-width="0" /><circle c_etype="pad_hole" cx="4076.5" cy="3164" r="0" layerid="1" stroke-width="0"/></g><g c_partid="part_pad" c_etype="pinpart" c_origin="4066.5,3164" layerid="1" number="6" net="U1_9" plated ="Y"  id="gge39" locked="0" c_rotation="270" c_width="12.48" c_height="5" title="U1_9" c_shape="RECT" pasteexpansion="0" solderexpansion="0.4"><polygon  c_etype="pad_shell" points="4069 3157.76 4069 3170.24 4064 3170.24 4064 3157.76" layerid="1" stroke-width="0" /><circle c_etype="pad_hole" cx="4066.5" cy="3164" r="0" layerid="1" stroke-width="0"/></g><g c_partid="part_pad" c_etype="pinpart" c_origin="4093,3115.5" layerid="1" number="35" net="" plated ="Y"  id="gge82" locked="1" c_rotation="90" c_width="15.748" c_height="15.748" title="" c_shape="ELLIPSE" pasteexpansion="0" solderexpansion="0.4"><ellipse c_etype="pad_shell" cx="4093" cy="3115.5" rx="7.874" ry="7.874" layerid="1" stroke-width="0"/><circle c_etype="pad_hole" cx="4093" cy="3115.5" r="0" layerid="1" stroke-width="0"/></g><g c_partid="part_pad" c_etype="pinpart" c_origin="4057.567,3079.752" layerid="1" number="3" net="U1_3" plated ="Y"  id="gge87" locked="0" c_rotation="0" c_width="7.874" c_height="4.7244" title="U1_3" c_shape="RECT" pasteexpansion="0" solderexpansion="0.4"><polygon  c_etype="pad_shell" points="4053.63 3077.3898 4061.504 3077.3898 4061.504 3082.1142 4053.63 3082.1142" layerid="1" stroke-width="0" /><circle c_etype="pad_hole" cx="4057.567" cy="3079.752" r="0" layerid="1" stroke-width="0"/></g><g c_partid="part_pad" c_etype="pinpart" c_origin="4057.567,3069.752" layerid="1" number="2" net="U1_2" plated ="Y"  id="gge92" locked="0" c_rotation="0" c_width="7.874" c_height="4.7244" title="U1_2" c_shape="RECT" pasteexpansion="0" solderexpansion="0.4"><polygon  c_etype="pad_shell" points="4053.63 3067.3898 4061.504 3067.3898 4061.504 3072.1142 4053.63 3072.1142" layerid="1" stroke-width="0" /><circle c_etype="pad_hole" cx="4057.567" cy="3069.752" r="0" layerid="1" stroke-width="0"/></g><g c_partid="part_pad" c_etype="pinpart" c_origin="4057.567,3059.752" layerid="1" number="1" net="U1_1" plated ="Y"  id="gge97" locked="0" c_rotation="0" c_width="7.874" c_height="4.7244" title="U1_1" c_shape="RECT" pasteexpansion="0" solderexpansion="0.4"><polygon  c_etype="pad_shell" points="4053.63 3057.3898 4061.504 3057.3898 4061.504 3062.1142 4053.63 3062.1142" layerid="1" stroke-width="0" /><circle c_etype="pad_hole" cx="4057.567" cy="3059.752" r="0" layerid="1" stroke-width="0"/></g><g c_partid="part_pad" c_etype="pinpart" c_origin="4057.567,3089.752" layerid="1" number="4" net="U1_4" plated ="Y"  id="gge102" locked="0" c_rotation="0" c_width="7.874" c_height="4.7244" title="U1_4" c_shape="RECT" pasteexpansion="0" solderexpansion="0.4"><polygon  c_etype="pad_shell" points="4053.63 3087.3898 4061.504 3087.3898 4061.504 3092.1142 4053.63 3092.1142" layerid="1" stroke-width="0" /><circle c_etype="pad_hole" cx="4057.567" cy="3089.752" r="0" layerid="1" stroke-width="0"/></g><g c_partid="part_pad" c_etype="pinpart" c_origin="4057.567,3099.752" layerid="1" number="5" net="U1_5" plated ="Y"  id="gge107" locked="0" c_rotation="0" c_width="7.874" c_height="4.7244" title="U1_5" c_shape="RECT" pasteexpansion="0" solderexpansion="0.4"><polygon  c_etype="pad_shell" points="4053.63 3097.3898 4061.504 3097.3898 4061.504 3102.1142 4053.63 3102.1142" layerid="1" stroke-width="0" /><circle c_etype="pad_hole" cx="4057.567" cy="3099.752" r="0" layerid="1" stroke-width="0"/></g><g c_partid="part_pad" c_etype="pinpart" c_origin="4057.567,3109.752" layerid="1" number="6" net="U1_6" plated ="Y"  id="gge112" locked="0" c_rotation="0" c_width="7.874" c_height="4.7244" title="U1_6" c_shape="RECT" pasteexpansion="0" solderexpansion="0.4"><polygon  c_etype="pad_shell" points="4053.63 3107.3898 4061.504 3107.3898 4061.504 3112.1142 4053.63 3112.1142" layerid="1" stroke-width="0" /><circle c_etype="pad_hole" cx="4057.567" cy="3109.752" r="0" layerid="1" stroke-width="0"/></g><g c_partid="part_pad" c_etype="pinpart" c_origin="4057.567,3119.752" layerid="1" number="7" net="U1_7" plated ="Y"  id="gge117" locked="0" c_rotation="0" c_width="7.874" c_height="4.7244" title="U1_7" c_shape="RECT" pasteexpansion="0" solderexpansion="0.4"><polygon  c_etype="pad_shell" points="4053.63 3117.3898 4061.504 3117.3898 4061.504 3122.1142 4053.63 3122.1142" layerid="1" stroke-width="0" /><circle c_etype="pad_hole" cx="4057.567" cy="3119.752" r="0" layerid="1" stroke-width="0"/></g><g c_partid="part_pad" c_etype="pinpart" c_origin="4057.567,3129.752" layerid="1" number="8" net="U1_8" plated ="Y"  id="gge122" locked="0" c_rotation="0" c_width="7.874" c_height="4.7244" title="U1_8" c_shape="RECT" pasteexpansion="0" solderexpansion="0.4"><polygon  c_etype="pad_shell" points="4053.63 3127.3898 4061.504 3127.3898 4061.504 3132.1142 4053.63 3132.1142" layerid="1" stroke-width="0" /><circle c_etype="pad_hole" cx="4057.567" cy="3129.752" r="0" layerid="1" stroke-width="0"/></g><g c_partid="part_pad" c_etype="pinpart" c_origin="4057.567,3139.752" layerid="1" number="9" net="U1_9" plated ="Y"  id="gge127" locked="0" c_rotation="0" c_width="7.874" c_height="4.7244" title="U1_9" c_shape="RECT" pasteexpansion="0" solderexpansion="0.4"><polygon  c_etype="pad_shell" points="4053.63 3137.3898 4061.504 3137.3898 4061.504 3142.1142 4053.63 3142.1142" layerid="1" stroke-width="0" /><circle c_etype="pad_hole" cx="4057.567" cy="3139.752" r="0" layerid="1" stroke-width="0"/></g><g c_partid="part_pad" c_etype="pinpart" c_origin="4128.433,3139.752" layerid="1" number="14" net="U1_9" plated ="Y"  id="gge152" locked="1" c_rotation="180" c_width="7.874" c_height="4.7244" title="U1_9" c_shape="RECT" pasteexpansion="0" solderexpansion="0.4"><polygon  c_etype="pad_shell" points="4132.37 3142.1142 4124.496 3142.1142 4124.496 3137.3898 4132.37 3137.3898" layerid="1" stroke-width="0" /><circle c_etype="pad_hole" cx="4128.433" cy="3139.752" r="0" layerid="1" stroke-width="0"/></g><g c_partid="part_pad" c_etype="pinpart" c_origin="4128.433,3129.752" layerid="1" number="15" net="U1_15" plated ="Y"  id="gge157" locked="1" c_rotation="180" c_width="7.874" c_height="4.7244" title="U1_15" c_shape="RECT" pasteexpansion="0" solderexpansion="0.4"><polygon  c_etype="pad_shell" points="4132.37 3132.1142 4124.496 3132.1142 4124.496 3127.3898 4132.37 3127.3898" layerid="1" stroke-width="0" /><circle c_etype="pad_hole" cx="4128.433" cy="3129.752" r="0" layerid="1" stroke-width="0"/></g><g c_partid="part_pad" c_etype="pinpart" c_origin="4128.433,3119.752" layerid="1" number="16" net="U1_16" plated ="Y"  id="gge162" locked="1" c_rotation="180" c_width="7.874" c_height="4.7244" title="U1_16" c_shape="RECT" pasteexpansion="0" solderexpansion="0.4"><polygon  c_etype="pad_shell" points="4132.37 3122.1142 4124.496 3122.1142 4124.496 3117.3898 4132.37 3117.3898" layerid="1" stroke-width="0" /><circle c_etype="pad_hole" cx="4128.433" cy="3119.752" r="0" layerid="1" stroke-width="0"/></g><g c_partid="part_pad" c_etype="pinpart" c_origin="4128.433,3109.752" layerid="1" number="17" net="U1_17" plated ="Y"  id="gge167" locked="1" c_rotation="180" c_width="7.874" c_height="4.7244" title="U1_17" c_shape="RECT" pasteexpansion="0" solderexpansion="0.4"><polygon  c_etype="pad_shell" points="4132.37 3112.1142 4124.496 3112.1142 4124.496 3107.3898 4132.37 3107.3898" layerid="1" stroke-width="0" /><circle c_etype="pad_hole" cx="4128.433" cy="3109.752" r="0" layerid="1" stroke-width="0"/></g><g c_partid="part_pad" c_etype="pinpart" c_origin="4128.433,3099.752" layerid="1" number="18" net="U1_18" plated ="Y"  id="gge172" locked="1" c_rotation="180" c_width="7.874" c_height="4.7244" title="U1_18" c_shape="RECT" pasteexpansion="0" solderexpansion="0.4"><polygon  c_etype="pad_shell" points="4132.37 3102.1142 4124.496 3102.1142 4124.496 3097.3898 4132.37 3097.3898" layerid="1" stroke-width="0" /><circle c_etype="pad_hole" cx="4128.433" cy="3099.752" r="0" layerid="1" stroke-width="0"/></g><g c_partid="part_pad" c_etype="pinpart" c_origin="4128.433,3089.752" layerid="1" number="19" net="U1_19" plated ="Y"  id="gge177" locked="1" c_rotation="180" c_width="7.874" c_height="4.7244" title="U1_19" c_shape="RECT" pasteexpansion="0" solderexpansion="0.4"><polygon  c_etype="pad_shell" points="4132.37 3092.1142 4124.496 3092.1142 4124.496 3087.3898 4132.37 3087.3898" layerid="1" stroke-width="0" /><circle c_etype="pad_hole" cx="4128.433" cy="3089.752" r="0" layerid="1" stroke-width="0"/></g><g c_partid="part_pad" c_etype="pinpart" c_origin="4096.4,3271.5" layerid="11" number="1" net="U1_9" plated ="Y"  id="gge64" locked="0" c_rotation="180" c_width="8" c_height="8" title="U1_9" c_shape="RECT" pasteexpansion="0" solderexpansion="0.4"><polygon  c_etype="pad_shell" points="4100.4 3275.5 4092.4 3275.5 4092.4 3267.5 4100.4 3267.5" layerid="11" stroke-width="0" /><circle c_etype="pad_hole" cx="4096.4" cy="3271.5" r="2.36" layerid="11" stroke-width="0"/></g><g c_partid="part_pad" c_etype="pinpart" c_origin="4082.6,3271.5" layerid="11" number="2" net="U1_8" plated ="Y"  id="gge69" locked="0" c_rotation="180" c_width="8" c_height="8" title="U1_8" c_shape="ELLIPSE" pasteexpansion="0" solderexpansion="0.4"><ellipse c_etype="pad_shell" cx="4082.6" cy="3271.5" rx="4" ry="4" layerid="11" stroke-width="0"/><circle c_etype="pad_hole" cx="4082.6" cy="3271.5" r="2.36" layerid="11" stroke-width="0"/></g><g c_partid="part_pad" c_etype="pinpart" c_origin="4093,3115.5" layerid="11" number="0" net="" plated ="Y"  id="gge224" locked="1" c_rotation="90" c_width="7.874" c_height="7.874" title="" c_shape="ELLIPSE" pasteexpansion="0" solderexpansion="0.4"><ellipse c_etype="pad_shell" cx="4093" cy="3115.5" rx="3.937" ry="3.937" layerid="11" stroke-width="0"/><polyline c_etype="pad_hole" points="4093 3115.51 4093 3115.49" layerid="11" stroke-width="7.874"></polyline></g><g c_partid="part_pad" c_etype="pinpart" c_origin="4063,3069.752" layerid="11" number="2" net="U1_2" plated ="Y"  id="gge229" locked="0" c_rotation="0" c_width="5.5118" c_height="5.1182" title="U1_2" c_shape="POLYGON" pasteexpansion="0" solderexpansion="0.4"><polygon  c_etype="pad_shell" points="4060.2438 3068.4725 4060.6186 3067.5677 4061.5233 3067.1929 4064.4761 3067.1929 4065.3809 3067.5677 4065.7556 3068.4725 4065.7556 3071.0315 4065.3809 3071.9363 4064.4761 3072.3111 4061.5233 3072.3111 4060.6186 3071.9363 4060.2438 3071.0315" layerid="11" stroke-width="0" /><polyline c_etype="pad_hole" points="4062.99 3069.752 4063.01 3069.752" layerid="11" stroke-width="3.3464"></polyline></g><g c_partid="part_pad" c_etype="pinpart" c_origin="4063,3079.752" layerid="11" number="3" net="U1_3" plated ="Y"  id="gge234" locked="0" c_rotation="0" c_width="5.5118" c_height="5.1182" title="U1_3" c_shape="POLYGON" pasteexpansion="0" solderexpansion="0.4"><polygon  c_etype="pad_shell" points="4060.2438 3078.4725 4060.6186 3077.5677 4061.5233 3077.1929 4064.4761 3077.1929 4065.3809 3077.5677 4065.7556 3078.4725 4065.7556 3081.0315 4065.3809 3081.9363 4064.4761 3082.3111 4061.5233 3082.3111 4060.6186 3081.9363 4060.2438 3081.0315" layerid="11" stroke-width="0" /><polyline c_etype="pad_hole" points="4062.99 3079.752 4063.01 3079.752" layerid="11" stroke-width="3.3464"></polyline></g><g c_partid="part_pad" c_etype="pinpart" c_origin="4063,3089.752" layerid="11" number="4" net="U1_4" plated ="Y"  id="gge239" locked="0" c_rotation="0" c_width="5.5118" c_height="5.1182" title="U1_4" c_shape="POLYGON" pasteexpansion="0" solderexpansion="0.4"><polygon  c_etype="pad_shell" points="4060.2438 3088.4725 4060.6186 3087.5677 4061.5233 3087.1929 4064.4761 3087.1929 4065.3809 3087.5677 4065.7556 3088.4725 4065.7556 3091.0315 4065.3809 3091.9363 4064.4761 3092.3111 4061.5233 3092.3111 4060.6186 3091.9363 4060.2438 3091.0315" layerid="11" stroke-width="0" /><polyline c_etype="pad_hole" points="4062.99 3089.752 4063.01 3089.752" layerid="11" stroke-width="3.3464"></polyline></g><g c_partid="part_pad" c_etype="pinpart" c_origin="4063,3099.752" layerid="11" number="5" net="U1_5" plated ="Y"  id="gge244" locked="0" c_rotation="0" c_width="5.5118" c_height="5.1182" title="U1_5" c_shape="POLYGON" pasteexpansion="0" solderexpansion="0.4"><polygon  c_etype="pad_shell" points="4060.2438 3098.4725 4060.6186 3097.5677 4061.5233 3097.1929 4064.4761 3097.1929 4065.3809 3097.5677 4065.7556 3098.4725 4065.7556 3101.0315 4065.3809 3101.9363 4064.4761 3102.3111 4061.5233 3102.3111 4060.6186 3101.9363 4060.2438 3101.0315" layerid="11" stroke-width="0" /><polyline c_etype="pad_hole" points="4062.99 3099.752 4063.01 3099.752" layerid="11" stroke-width="3.3464"></polyline></g><g c_partid="part_pad" c_etype="pinpart" c_origin="4063,3109.752" layerid="11" number="6" net="U1_6" plated ="Y"  id="gge249" locked="0" c_rotation="0" c_width="5.5118" c_height="5.1182" title="U1_6" c_shape="POLYGON" pasteexpansion="0" solderexpansion="0.4"><polygon  c_etype="pad_shell" points="4060.2438 3108.4725 4060.6186 3107.5677 4061.5233 3107.1929 4064.4761 3107.1929 4065.3809 3107.5677 4065.7556 3108.4725 4065.7556 3111.0315 4065.3809 3111.9363 4064.4761 3112.3111 4061.5233 3112.3111 4060.6186 3111.9363 4060.2438 3111.0315" layerid="11" stroke-width="0" /><polyline c_etype="pad_hole" points="4062.99 3109.752 4063.01 3109.752" layerid="11" stroke-width="3.3464"></polyline></g><g c_partid="part_pad" c_etype="pinpart" c_origin="4063,3119.752" layerid="11" number="7" net="U1_7" plated ="Y"  id="gge254" locked="0" c_rotation="0" c_width="5.5118" c_height="5.1182" title="U1_7" c_shape="POLYGON" pasteexpansion="0" solderexpansion="0.4"><polygon  c_etype="pad_shell" points="4060.2438 3118.4725 4060.6186 3117.5677 4061.5233 3117.1929 4064.4761 3117.1929 4065.3809 3117.5677 4065.7556 3118.4725 4065.7556 3121.0315 4065.3809 3121.9363 4064.4761 3122.3111 4061.5233 3122.3111 4060.6186 3121.9363 4060.2438 3121.0315" layerid="11" stroke-width="0" /><polyline c_etype="pad_hole" points="4062.99 3119.752 4063.01 3119.752" layerid="11" stroke-width="3.3464"></polyline></g><g c_partid="part_pad" c_etype="pinpart" c_origin="4063,3129.752" layerid="11" number="8" net="U1_8" plated ="Y"  id="gge259" locked="0" c_rotation="0" c_width="5.5118" c_height="5.1181" title="U1_8" c_shape="RECT" pasteexpansion="0" solderexpansion="0.4"><polygon  c_etype="pad_shell" points="4060.2441 3127.1929 4065.7559 3127.1929 4065.7559 3132.3111 4060.2441 3132.3111" layerid="11" stroke-width="0" /><polyline c_etype="pad_hole" points="4062.99 3129.752 4063.01 3129.752" layerid="11" stroke-width="3.3464"></polyline></g><g c_partid="part_pad" c_etype="pinpart" c_origin="4063,3139.752" layerid="11" number="9" net="U1_9" plated ="Y"  id="gge264" locked="0" c_rotation="0" c_width="5.5118" c_height="5.1181" title="U1_9" c_shape="OVAL" pasteexpansion="0" solderexpansion="0.4"><polyline  c_etype="pad_shell" points="4062.8032 3139.752 4063.1969 3139.752" layerid="11" stroke-width="5.1181" /><polyline c_etype="pad_hole" points="4062.99 3139.752 4063.01 3139.752" layerid="11" stroke-width="3.3464"></polyline></g><g c_partid="part_pad" c_etype="pinpart" c_origin="4123,3139.752" layerid="11" number="14" net="U1_9" plated ="Y"  id="gge269" locked="1" c_rotation="180" c_width="5.5118" c_height="5.1181" title="U1_9" c_shape="OVAL" pasteexpansion="0" solderexpansion="0.4"><polyline  c_etype="pad_shell" points="4123.1969 3139.752 4122.8032 3139.752" layerid="11" stroke-width="5.1181" /><polyline c_etype="pad_hole" points="4123.01 3139.752 4122.99 3139.752" layerid="11" stroke-width="3.3464"></polyline></g><g c_partid="part_pad" c_etype="pinpart" c_origin="4123,3129.752" layerid="11" number="15" net="U1_15" plated ="Y"  id="gge274" locked="1" c_rotation="180" c_width="5.5118" c_height="5.1182" title="U1_15" c_shape="POLYGON" pasteexpansion="0" solderexpansion="0.4"><polygon  c_etype="pad_shell" points="4125.7556 3131.0315 4125.3809 3131.9363 4124.4761 3132.3111 4121.5233 3132.3111 4120.6186 3131.9363 4120.2438 3131.0315 4120.2438 3128.4725 4120.6186 3127.5677 4121.5233 3127.1929 4124.4761 3127.1929 4125.3809 3127.5677 4125.7556 3128.4725" layerid="11" stroke-width="0" /><polyline c_etype="pad_hole" points="4123.01 3129.752 4122.99 3129.752" layerid="11" stroke-width="3.3464"></polyline></g><g c_partid="part_pad" c_etype="pinpart" c_origin="4123,3119.752" layerid="11" number="16" net="U1_16" plated ="Y"  id="gge279" locked="1" c_rotation="180" c_width="5.5118" c_height="5.1182" title="U1_16" c_shape="POLYGON" pasteexpansion="0" solderexpansion="0.4"><polygon  c_etype="pad_shell" points="4125.7556 3121.0315 4125.3809 3121.9363 4124.4761 3122.3111 4121.5233 3122.3111 4120.6186 3121.9363 4120.2438 3121.0315 4120.2438 3118.4725 4120.6186 3117.5677 4121.5233 3117.1929 4124.4761 3117.1929 4125.3809 3117.5677 4125.7556 3118.4725" layerid="11" stroke-width="0" /><polyline c_etype="pad_hole" points="4123.01 3119.752 4122.99 3119.752" layerid="11" stroke-width="3.3464"></polyline></g><g c_partid="part_pad" c_etype="pinpart" c_origin="4123,3109.752" layerid="11" number="17" net="U1_17" plated ="Y"  id="gge284" locked="1" c_rotation="180" c_width="5.5118" c_height="5.1182" title="U1_17" c_shape="POLYGON" pasteexpansion="0" solderexpansion="0.4"><polygon  c_etype="pad_shell" points="4125.7556 3111.0315 4125.3809 3111.9363 4124.4761 3112.3111 4121.5233 3112.3111 4120.6186 3111.9363 4120.2438 3111.0315 4120.2438 3108.4725 4120.6186 3107.5677 4121.5233 3107.1929 4124.4761 3107.1929 4125.3809 3107.5677 4125.7556 3108.4725" layerid="11" stroke-width="0" /><polyline c_etype="pad_hole" points="4123.01 3109.752 4122.99 3109.752" layerid="11" stroke-width="3.3464"></polyline></g><g c_partid="part_pad" c_etype="pinpart" c_origin="4123,3099.752" layerid="11" number="18" net="U1_18" plated ="Y"  id="gge289" locked="1" c_rotation="180" c_width="5.5118" c_height="5.1182" title="U1_18" c_shape="POLYGON" pasteexpansion="0" solderexpansion="0.4"><polygon  c_etype="pad_shell" points="4125.7556 3101.0315 4125.3809 3101.9363 4124.4761 3102.3111 4121.5233 3102.3111 4120.6186 3101.9363 4120.2438 3101.0315 4120.2438 3098.4725 4120.6186 3097.5677 4121.5233 3097.1929 4124.4761 3097.1929 4125.3809 3097.5677 4125.7556 3098.4725" layerid="11" stroke-width="0" /><polyline c_etype="pad_hole" points="4123.01 3099.752 4122.99 3099.752" layerid="11" stroke-width="3.3464"></polyline></g><g c_partid="part_pad" c_etype="pinpart" c_origin="4063,3059.752" layerid="11" number="1" net="U1_1" plated ="Y"  id="gge294" locked="0" c_rotation="0" c_width="5.5118" c_height="5.1182" title="U1_1" c_shape="POLYGON" pasteexpansion="0" solderexpansion="0.4"><polygon  c_etype="pad_shell" points="4060.2438 3058.4725 4060.6186 3057.5677 4061.5233 3057.1929 4064.4761 3057.1929 4065.3809 3057.5677 4065.7556 3058.4725 4065.7556 3061.0315 4065.3809 3061.9363 4064.4761 3062.3111 4061.5233 3062.3111 4060.6186 3061.9363 4060.2438 3061.0315" layerid="11" stroke-width="0" /><polyline c_etype="pad_hole" points="4062.99 3059.752 4063.01 3059.752" layerid="11" stroke-width="3.3464"></polyline></g><g c_partid="part_pad" c_etype="pinpart" c_origin="4123,3089.752" layerid="11" number="19" net="U1_19" plated ="Y"  id="gge299" locked="1" c_rotation="180" c_width="5.1181" c_height="5.1181" title="U1_19" c_shape="RECT" pasteexpansion="0" solderexpansion="0.4"><polygon  c_etype="pad_shell" points="4125.5591 3092.3111 4120.4409 3092.3111 4120.4409 3087.1929 4125.5591 3087.1929" layerid="11" stroke-width="0" /><polyline c_etype="pad_hole" points="4123.01 3089.752 4122.99 3089.752" layerid="11" stroke-width="3.3464"></polyline></g><g c_partid="part_pad" c_etype="pinpart" c_origin="4108,3146.996" layerid="11" number="13" net="U1_13" plated ="Y"  id="gge147" locked="0" c_rotation="90" c_width="7.874" c_height="4.7244" title="U1_13" c_shape="RECT" pasteexpansion="0" solderexpansion="0.4"><polygon  c_etype="pad_shell" points="4105.6378 3150.933 4105.6378 3143.059 4110.3622 3143.059 4110.3622 3150.933" layerid="11" stroke-width="0" /><circle c_etype="pad_hole" cx="4108" cy="3146.996" r="1.42" layerid="11" stroke-width="0"/></g><g c_partid="part_pad" c_etype="pinpart" c_origin="4098,3146.996" layerid="11" number="12" net="U1_12" plated ="Y"  id="gge142" locked="0" c_rotation="90" c_width="7.874" c_height="4.7244" title="U1_12" c_shape="RECT" pasteexpansion="0" solderexpansion="0.4"><polygon  c_etype="pad_shell" points="4095.6378 3150.933 4095.6378 3143.059 4100.3622 3143.059 4100.3622 3150.933" layerid="11" stroke-width="0" /><circle c_etype="pad_hole" cx="4098" cy="3146.996" r="1.42" layerid="11" stroke-width="0"/></g><g c_partid="part_pad" c_etype="pinpart" c_origin="4088,3146.996" layerid="11" number="11" net="U1_11" plated ="Y"  id="gge137" locked="0" c_rotation="90" c_width="7.874" c_height="4.7244" title="U1_11" c_shape="RECT" pasteexpansion="0" solderexpansion="0.4"><polygon  c_etype="pad_shell" points="4085.6378 3150.933 4085.6378 3143.059 4090.3622 3143.059 4090.3622 3150.933" layerid="11" stroke-width="0" /><circle c_etype="pad_hole" cx="4088" cy="3146.996" r="1.42" layerid="11" stroke-width="0"/></g><g c_partid="part_pad" c_etype="pinpart" c_origin="4078,3146.996" layerid="11" number="10" net="U1_9" plated ="Y"  id="gge132" locked="0" c_rotation="90" c_width="7.874" c_height="4.7244" title="U1_9" c_shape="RECT" pasteexpansion="0" solderexpansion="0.4"><polygon  c_etype="pad_shell" points="4075.6378 3150.933 4075.6378 3143.059 4080.3622 3143.059 4080.3622 3150.933" layerid="11" stroke-width="0" /><circle c_etype="pad_hole" cx="4078" cy="3146.996" r="1.42" layerid="11" stroke-width="0"/></g><polyline points="4122 3171.9 4122 3181.7 4067.8 3181.7 4065.2 3181.7 4061 3181.7 4061 3171.9 4122 3171.9" stroke-width="1"  stroke-linecap="round" fill="none" layerid="3" net="" id="gge7" locked="0" /><polyline points="4065.2 3181.7 4065.2 3205.3 4067.8 3205.3 4067.8 3181.7" stroke-width="1"  stroke-linecap="round" fill="none" layerid="3" net="" id="gge8" locked="0" /><polyline points="4075.2 3181.7 4075.2 3205.3 4077.8 3205.3 4077.8 3181.7" stroke-width="1"  stroke-linecap="round" fill="none" layerid="3" net="" id="gge9" locked="0" /><polyline points="4085.2 3181.7 4085.2 3205.3 4087.8 3205.3 4087.8 3181.7" stroke-width="1"  stroke-linecap="round" fill="none" layerid="3" net="" id="gge10" locked="0" /><polyline points="4095.2 3181.7 4095.2 3205.3 4097.8 3205.3 4097.8 3181.7" stroke-width="1"  stroke-linecap="round" fill="none" layerid="3" net="" id="gge11" locked="0" /><polyline points="4115.2 3181.7 4115.2 3205.3 4117.8 3205.3 4117.8 3181.7" stroke-width="1"  stroke-linecap="round" fill="none" layerid="3" net="" id="gge12" locked="0" /><polyline points="4105.2 3181.7 4105.2 3205.3 4107.8 3205.3 4107.8 3181.7" stroke-width="1"  stroke-linecap="round" fill="none" layerid="3" net="" id="gge13" locked="0" /><polyline points="4103.3 3284.9 4075.7 3284.9" stroke-width="1"  stroke-linecap="round" fill="none" layerid="3" net="" id="gge50" locked="0" /><polyline points="4075.7 3284.9 4075.7 3260.5" stroke-width="1"  stroke-linecap="round" fill="none" layerid="3" net="" id="gge51" locked="0" /><polyline points="4075.7 3260.5 4075.7 3257.3" stroke-width="1"  stroke-linecap="round" fill="none" layerid="3" net="" id="gge52" locked="0" /><polyline points="4075.7 3257.3 4103.3 3257.3" stroke-width="1"  stroke-linecap="round" fill="none" layerid="3" net="" id="gge53" locked="0" /><polyline points="4103.3 3257.3 4103.3 3260.5" stroke-width="1"  stroke-linecap="round" fill="none" layerid="3" net="" id="gge54" locked="0" /><polyline points="4103.3 3260.5 4103.3 3284.9" stroke-width="1"  stroke-linecap="round" fill="none" layerid="3" net="" id="gge55" locked="0" /><polyline points="4075.7 3260.5 4103.3 3260.5" stroke-width="1"  stroke-linecap="round" fill="none" layerid="3" net="" id="gge56" locked="0" /><polyline points="4061.5037 3052.5079 4124.4958 3052.5079 4128.4328 3056.4449 4128.4328 3143.0591 4124.4958 3146.9961 4061.5037 3146.9961 4057.5666 3143.0591 4057.5666 3056.4449 4061.5036 3052.5079" stroke-width="0.7874"  stroke-linecap="round" fill="none" layerid="3" net="" id="gge81" locked="0" /><g c_partid="part_pcbtext" c_etype="pinpart" c_origin="4066,3213.5" c_rotation="0" c_mirror="0" id="gge328" locked="0" layerid="3" c_shapetype="group" ><path c_fontsize="5.9055" c_fontfamily="" c_text="Servo" d="M 4069.76 3208.35 L 4069.22 3207.81 L 4068.42 3207.54 L 4067.34 3207.54 L 4066.54 3207.81 L 4066 3208.35 L 4066 3208.88 L 4066.27 3209.42 L 4066.54 3209.69 L 4067.07 3209.96 L 4068.68 3210.49 L 4069.22 3210.76 L 4069.49 3211.03 L 4069.76 3211.57 L 4069.76 3212.37 L 4069.22 3212.91 L 4068.42 3213.18 L 4067.34 3213.18 L 4066.54 3212.91 L 4066 3212.37 M 4071.53 3211.03 L 4074.75 3211.03 L 4074.75 3210.49 L 4074.48 3209.96 L 4074.21 3209.69 L 4073.68 3209.42 L 4072.87 3209.42 L 4072.34 3209.69 L 4071.8 3210.23 L 4071.53 3211.03 L 4071.53 3211.57 L 4071.8 3212.37 L 4072.34 3212.91 L 4072.87 3213.18 L 4073.68 3213.18 L 4074.21 3212.91 L 4074.75 3212.37 M 4076.52 3209.42 L 4076.52 3213.18 M 4076.52 3211.03 L 4076.79 3210.23 L 4077.33 3209.69 L 4077.86 3209.42 L 4078.67 3209.42 M 4080.44 3209.42 L 4082.05 3213.18 M 4083.66 3209.42 L 4082.05 3213.18 M 4086.78 3209.42 L 4086.24 3209.69 L 4085.7 3210.23 L 4085.43 3211.03 L 4085.43 3211.57 L 4085.7 3212.37 L 4086.24 3212.91 L 4086.78 3213.18 L 4087.58 3213.18 L 4088.12 3212.91 L 4088.66 3212.37 L 4088.92 3211.57 L 4088.92 3211.03 L 4088.66 3210.23 L 4088.12 3209.69 L 4087.58 3209.42 L 4086.78 3209.42" fill="none"  stroke-width="0.8"  /></g><g c_partid="part_pcbtext" c_etype="pinpart" c_origin="4070.5,3221" c_rotation="0" c_mirror="0" id="gge335" locked="0" layerid="3" c_shapetype="group" ><path c_fontsize="5.9055" c_fontfamily="" c_text="One" d="M 4072.11 3215.04 L 4071.57 3215.31 L 4071.04 3215.85 L 4070.77 3216.38 L 4070.5 3217.19 L 4070.5 3218.53 L 4070.77 3219.34 L 4071.04 3219.87 L 4071.57 3220.41 L 4072.11 3220.68 L 4073.18 3220.68 L 4073.72 3220.41 L 4074.26 3219.87 L 4074.53 3219.34 L 4074.79 3218.53 L 4074.79 3217.19 L 4074.53 3216.38 L 4074.26 3215.85 L 4073.72 3215.31 L 4073.18 3215.04 L 4072.11 3215.04 M 4076.57 3216.92 L 4076.57 3220.68 M 4076.57 3217.99 L 4077.37 3217.19 L 4077.91 3216.92 L 4078.71 3216.92 L 4079.25 3217.19 L 4079.52 3217.99 L 4079.52 3220.68 M 4081.29 3218.53 L 4084.51 3218.53 L 4084.51 3217.99 L 4084.24 3217.46 L 4083.98 3217.19 L 4083.44 3216.92 L 4082.63 3216.92 L 4082.1 3217.19 L 4081.56 3217.73 L 4081.29 3218.53 L 4081.29 3219.07 L 4081.56 3219.87 L 4082.1 3220.41 L 4082.63 3220.68 L 4083.44 3220.68 L 4083.98 3220.41 L 4084.51 3219.87" fill="none"  stroke-width="0.8"  /></g><g c_partid="part_pcbtext" c_etype="pinpart" c_origin="4097.5,3213" c_rotation="0" c_mirror="0" id="gge339" locked="0" layerid="3" c_shapetype="group" ><path c_fontsize="5.9055" c_fontfamily="" c_text="Servo" d="M 4101.26 3207.85 L 4100.72 3207.31 L 4099.92 3207.04 L 4098.84 3207.04 L 4098.04 3207.31 L 4097.5 3207.85 L 4097.5 3208.38 L 4097.77 3208.92 L 4098.04 3209.19 L 4098.57 3209.46 L 4100.18 3209.99 L 4100.72 3210.26 L 4100.99 3210.53 L 4101.26 3211.07 L 4101.26 3211.87 L 4100.72 3212.41 L 4099.92 3212.68 L 4098.84 3212.68 L 4098.04 3212.41 L 4097.5 3211.87 M 4103.03 3210.53 L 4106.25 3210.53 L 4106.25 3209.99 L 4105.98 3209.46 L 4105.71 3209.19 L 4105.18 3208.92 L 4104.37 3208.92 L 4103.84 3209.19 L 4103.3 3209.73 L 4103.03 3210.53 L 4103.03 3211.07 L 4103.3 3211.87 L 4103.84 3212.41 L 4104.37 3212.68 L 4105.18 3212.68 L 4105.71 3212.41 L 4106.25 3211.87 M 4108.02 3208.92 L 4108.02 3212.68 M 4108.02 3210.53 L 4108.29 3209.73 L 4108.83 3209.19 L 4109.36 3208.92 L 4110.17 3208.92 M 4111.94 3208.92 L 4113.55 3212.68 M 4115.16 3208.92 L 4113.55 3212.68 M 4118.28 3208.92 L 4117.74 3209.19 L 4117.2 3209.73 L 4116.93 3210.53 L 4116.93 3211.07 L 4117.2 3211.87 L 4117.74 3212.41 L 4118.28 3212.68 L 4119.08 3212.68 L 4119.62 3212.41 L 4120.16 3211.87 L 4120.42 3211.07 L 4120.42 3210.53 L 4120.16 3209.73 L 4119.62 3209.19 L 4119.08 3208.92 L 4118.28 3208.92" fill="none"  stroke-width="0.8"  /></g><g c_partid="part_pcbtext" c_etype="pinpart" c_origin="4101.5,3221" c_rotation="0" c_mirror="0" id="gge343" locked="0" layerid="3" c_shapetype="group" ><path c_fontsize="5.9055" c_fontfamily="" c_text="Two" d="M 4103.38 3215.04 L 4103.38 3220.68 M 4101.5 3215.04 L 4105.26 3215.04 M 4107.03 3216.92 L 4108.1 3220.68 M 4109.18 3216.92 L 4108.1 3220.68 M 4109.18 3216.92 L 4110.25 3220.68 M 4111.32 3216.92 L 4110.25 3220.68 M 4114.44 3216.92 L 4113.9 3217.19 L 4113.36 3217.73 L 4113.1 3218.53 L 4113.1 3219.07 L 4113.36 3219.87 L 4113.9 3220.41 L 4114.44 3220.68 L 4115.24 3220.68 L 4115.78 3220.41 L 4116.32 3219.87 L 4116.59 3219.07 L 4116.59 3218.53 L 4116.32 3217.73 L 4115.78 3217.19 L 4115.24 3216.92 L 4114.44 3216.92" fill="none"  stroke-width="0.8"  /></g><g c_partid="part_pcbtext" c_etype="pinpart" c_origin="4053.5,3273.5" c_rotation="0" c_mirror="0" id="gge347" locked="0" layerid="3" c_shapetype="group" ><path c_fontsize="5.9055" c_fontfamily="" c_text="IN" d="M 4053.5 3267.54 L 4053.5 3273.18 M 4055.27 3267.54 L 4055.27 3273.18 M 4055.27 3267.54 L 4059.03 3273.18 M 4059.03 3267.54 L 4059.03 3273.18" fill="none"  stroke-width="0.8"  /></g><g c_partid="part_pcbtext" c_etype="pinpart" c_origin="4061,3273.5" c_rotation="0" c_mirror="0" id="gge371" locked="0" layerid="3" c_shapetype="group" ><path c_fontsize="5.9055" c_fontfamily="" c_text="5V" d="M 4064.22 3267.54 L 4061.54 3267.54 L 4061.27 3269.96 L 4061.54 3269.69 L 4062.34 3269.42 L 4063.15 3269.42 L 4063.95 3269.69 L 4064.49 3270.23 L 4064.76 3271.03 L 4064.76 3271.57 L 4064.49 3272.37 L 4063.95 3272.91 L 4063.15 3273.18 L 4062.34 3273.18 L 4061.54 3272.91 L 4061.27 3272.64 L 4061 3272.1 M 4066.53 3267.54 L 4068.68 3273.18 M 4070.82 3267.54 L 4068.68 3273.18" fill="none"  stroke-width="0.8"  /></g><g c_partid="part_pcbtext" c_etype="pinpart" c_origin="4041.5,3248.5" c_rotation="0" c_mirror="0" id="gge357" locked="0" layerid="3" c_shapetype="group" ><path c_fontsize="5.9055" c_fontfamily="" c_text="Bala, Sumo, Duel Servo" d="M 4041.5 3242.54 L 4041.5 3248.18 M 4041.5 3242.54 L 4043.92 3242.54 L 4044.72 3242.81 L 4044.99 3243.08 L 4045.26 3243.61 L 4045.26 3244.15 L 4044.99 3244.69 L 4044.72 3244.96 L 4043.92 3245.23 M 4041.5 3245.23 L 4043.92 3245.23 L 4044.72 3245.49 L 4044.99 3245.76 L 4045.26 3246.3 L 4045.26 3247.1 L 4044.99 3247.64 L 4044.72 3247.91 L 4043.92 3248.18 L 4041.5 3248.18 M 4050.25 3244.42 L 4050.25 3248.18 M 4050.25 3245.23 L 4049.71 3244.69 L 4049.18 3244.42 L 4048.37 3244.42 L 4047.83 3244.69 L 4047.3 3245.23 L 4047.03 3246.03 L 4047.03 3246.57 L 4047.3 3247.37 L 4047.83 3247.91 L 4048.37 3248.18 L 4049.18 3248.18 L 4049.71 3247.91 L 4050.25 3247.37 M 4052.02 3242.54 L 4052.02 3248.18 M 4057.02 3244.42 L 4057.02 3248.18 M 4057.02 3245.23 L 4056.48 3244.69 L 4055.94 3244.42 L 4055.14 3244.42 L 4054.6 3244.69 L 4054.06 3245.23 L 4053.79 3246.03 L 4053.79 3246.57 L 4054.06 3247.37 L 4054.6 3247.91 L 4055.14 3248.18 L 4055.94 3248.18 L 4056.48 3247.91 L 4057.02 3247.37 M 4059.32 3247.1 L 4059.06 3247.37 L 4058.79 3247.1 L 4059.06 3246.84 L 4059.32 3247.1 L 4059.32 3247.64 L 4058.79 3248.18 M 4068.99 3243.35 L 4068.45 3242.81 L 4067.65 3242.54 L 4066.57 3242.54 L 4065.77 3242.81 L 4065.23 3243.35 L 4065.23 3243.88 L 4065.5 3244.42 L 4065.77 3244.69 L 4066.3 3244.96 L 4067.91 3245.49 L 4068.45 3245.76 L 4068.72 3246.03 L 4068.99 3246.57 L 4068.99 3247.37 L 4068.45 3247.91 L 4067.65 3248.18 L 4066.57 3248.18 L 4065.77 3247.91 L 4065.23 3247.37 M 4070.76 3244.42 L 4070.76 3247.1 L 4071.03 3247.91 L 4071.56 3248.18 L 4072.37 3248.18 L 4072.91 3247.91 L 4073.71 3247.1 M 4073.71 3244.42 L 4073.71 3248.18 M 4075.48 3244.42 L 4075.48 3248.18 M 4075.48 3245.49 L 4076.29 3244.69 L 4076.83 3244.42 L 4077.63 3244.42 L 4078.17 3244.69 L 4078.44 3245.49 L 4078.44 3248.18 M 4078.44 3245.49 L 4079.24 3244.69 L 4079.78 3244.42 L 4080.58 3244.42 L 4081.12 3244.69 L 4081.39 3245.49 L 4081.39 3248.18 M 4084.5 3244.42 L 4083.97 3244.69 L 4083.43 3245.23 L 4083.16 3246.03 L 4083.16 3246.57 L 4083.43 3247.37 L 4083.97 3247.91 L 4084.5 3248.18 L 4085.31 3248.18 L 4085.84 3247.91 L 4086.38 3247.37 L 4086.65 3246.57 L 4086.65 3246.03 L 4086.38 3245.23 L 4085.84 3244.69 L 4085.31 3244.42 L 4084.5 3244.42 M 4088.96 3247.1 L 4088.69 3247.37 L 4088.42 3247.1 L 4088.69 3246.84 L 4088.96 3247.1 L 4088.96 3247.64 L 4088.42 3248.18 M 4094.86 3242.54 L 4094.86 3248.18 M 4094.86 3242.54 L 4096.74 3242.54 L 4097.55 3242.81 L 4098.09 3243.35 L 4098.35 3243.88 L 4098.62 3244.69 L 4098.62 3246.03 L 4098.35 3246.84 L 4098.09 3247.37 L 4097.55 3247.91 L 4096.74 3248.18 L 4094.86 3248.18 M 4100.39 3244.42 L 4100.39 3247.1 L 4100.66 3247.91 L 4101.2 3248.18 L 4102 3248.18 L 4102.54 3247.91 L 4103.35 3247.1 M 4103.35 3244.42 L 4103.35 3248.18 M 4105.12 3246.03 L 4108.34 3246.03 L 4108.34 3245.49 L 4108.07 3244.96 L 4107.8 3244.69 L 4107.27 3244.42 L 4106.46 3244.42 L 4105.92 3244.69 L 4105.39 3245.23 L 4105.12 3246.03 L 4105.12 3246.57 L 4105.39 3247.37 L 4105.92 3247.91 L 4106.46 3248.18 L 4107.27 3248.18 L 4107.8 3247.91 L 4108.34 3247.37 M 4110.11 3242.54 L 4110.11 3248.18 M 4119.77 3243.35 L 4119.24 3242.81 L 4118.43 3242.54 L 4117.36 3242.54 L 4116.55 3242.81 L 4116.02 3243.35 L 4116.02 3243.88 L 4116.29 3244.42 L 4116.55 3244.69 L 4117.09 3244.96 L 4118.7 3245.49 L 4119.24 3245.76 L 4119.51 3246.03 L 4119.77 3246.57 L 4119.77 3247.37 L 4119.24 3247.91 L 4118.43 3248.18 L 4117.36 3248.18 L 4116.55 3247.91 L 4116.02 3247.37 M 4121.55 3246.03 L 4124.77 3246.03 L 4124.77 3245.49 L 4124.5 3244.96 L 4124.23 3244.69 L 4123.69 3244.42 L 4122.89 3244.42 L 4122.35 3244.69 L 4121.81 3245.23 L 4121.55 3246.03 L 4121.55 3246.57 L 4121.81 3247.37 L 4122.35 3247.91 L 4122.89 3248.18 L 4123.69 3248.18 L 4124.23 3247.91 L 4124.77 3247.37 M 4126.54 3244.42 L 4126.54 3248.18 M 4126.54 3246.03 L 4126.81 3245.23 L 4127.34 3244.69 L 4127.88 3244.42 L 4128.69 3244.42 M 4130.46 3244.42 L 4132.07 3248.18 M 4133.68 3244.42 L 4132.07 3248.18 M 4136.79 3244.42 L 4136.26 3244.69 L 4135.72 3245.23 L 4135.45 3246.03 L 4135.45 3246.57 L 4135.72 3247.37 L 4136.26 3247.91 L 4136.79 3248.18 L 4137.6 3248.18 L 4138.14 3247.91 L 4138.67 3247.37 L 4138.94 3246.57 L 4138.94 3246.03 L 4138.67 3245.23 L 4138.14 3244.69 L 4137.6 3244.42 L 4136.79 3244.42" fill="none"  stroke-width="0.8"  /></g><g c_partid="part_pcbtext" c_etype="" c_origin="4135.29,3293.01" c_rotation="90" c_mirror="0" id="gge3" locked="0" layerid="3" c_shapetype="group" display="none"><path c_fontsize="4.5" c_fontfamily="" c_text="HEADER-1x6-SMD-MALE-2.54-90" d="M 4130.75 3293.01 L 4135.04 3293.01 M 4130.75 3290.15 L 4135.04 3290.15 M 4132.79 3293.01 L 4132.79 3290.15 M 4130.75 3288.8 L 4135.04 3288.8 M 4130.75 3288.8 L 4130.75 3286.14 M 4132.79 3288.8 L 4132.79 3287.16 M 4135.04 3288.8 L 4135.04 3286.14 M 4130.75 3283.15 L 4135.04 3284.79 M 4130.75 3283.15 L 4135.04 3281.51 M 4133.61 3284.17 L 4133.61 3282.13 M 4130.75 3280.16 L 4135.04 3280.16 M 4130.75 3280.16 L 4130.75 3278.73 L 4130.95 3278.12 L 4131.36 3277.71 L 4131.77 3277.51 L 4132.39 3277.3 L 4133.41 3277.3 L 4134.02 3277.51 L 4134.43 3277.71 L 4134.84 3278.12 L 4135.04 3278.73 L 4135.04 3280.16 M 4130.75 3275.95 L 4135.04 3275.95 M 4130.75 3275.95 L 4130.75 3273.29 M 4132.79 3275.95 L 4132.79 3274.31 M 4135.04 3275.95 L 4135.04 3273.29 M 4130.75 3271.94 L 4135.04 3271.94 M 4130.75 3271.94 L 4130.75 3270.1 L 4130.95 3269.49 L 4131.16 3269.28 L 4131.57 3269.08 L 4131.98 3269.08 L 4132.39 3269.28 L 4132.59 3269.49 L 4132.79 3270.1 L 4132.79 3271.94 M 4132.79 3270.51 L 4135.04 3269.08 M 4133.2 3267.73 L 4133.2 3264.05 M 4131.57 3262.7 L 4131.36 3262.29 L 4130.75 3261.67 L 4135.04 3261.67 M 4132.18 3260.32 L 4135.04 3258.07 M 4132.18 3258.07 L 4135.04 3260.32 M 4131.36 3254.27 L 4130.95 3254.47 L 4130.75 3255.09 L 4130.75 3255.5 L 4130.95 3256.11 L 4131.57 3256.52 L 4132.59 3256.72 L 4133.61 3256.72 L 4134.43 3256.52 L 4134.84 3256.11 L 4135.04 3255.5 L 4135.04 3255.29 L 4134.84 3254.68 L 4134.43 3254.27 L 4133.82 3254.06 L 4133.61 3254.06 L 4133 3254.27 L 4132.59 3254.68 L 4132.39 3255.29 L 4132.39 3255.5 L 4132.59 3256.11 L 4133 3256.52 L 4133.61 3256.72 M 4133.2 3252.71 L 4133.2 3249.03 M 4131.36 3244.82 L 4130.95 3245.23 L 4130.75 3245.84 L 4130.75 3246.66 L 4130.95 3247.27 L 4131.36 3247.68 L 4131.77 3247.68 L 4132.18 3247.48 L 4132.39 3247.27 L 4132.59 3246.86 L 4133 3245.64 L 4133.2 3245.23 L 4133.41 3245.02 L 4133.82 3244.82 L 4134.43 3244.82 L 4134.84 3245.23 L 4135.04 3245.84 L 4135.04 3246.66 L 4134.84 3247.27 L 4134.43 3247.68 M 4130.75 3243.47 L 4135.04 3243.47 M 4130.75 3243.47 L 4135.04 3241.83 M 4130.75 3240.2 L 4135.04 3241.83 M 4130.75 3240.2 L 4135.04 3240.2 M 4130.75 3238.85 L 4135.04 3238.85 M 4130.75 3238.85 L 4130.75 3237.41 L 4130.95 3236.8 L 4131.36 3236.39 L 4131.77 3236.19 L 4132.39 3235.98 L 4133.41 3235.98 L 4134.02 3236.19 L 4134.43 3236.39 L 4134.84 3236.8 L 4135.04 3237.41 L 4135.04 3238.85 M 4133.2 3234.63 L 4133.2 3230.95 M 4130.75 3229.6 L 4135.04 3229.6 M 4130.75 3229.6 L 4135.04 3227.96 M 4130.75 3226.33 L 4135.04 3227.96 M 4130.75 3226.33 L 4135.04 3226.33 M 4130.75 3223.34 L 4135.04 3224.98 M 4130.75 3223.34 L 4135.04 3221.71 M 4133.61 3224.36 L 4133.61 3222.32 M 4130.75 3220.36 L 4135.04 3220.36 M 4135.04 3220.36 L 4135.04 3217.9 M 4130.75 3216.55 L 4135.04 3216.55 M 4130.75 3216.55 L 4130.75 3213.89 M 4132.79 3216.55 L 4132.79 3214.91 M 4135.04 3216.55 L 4135.04 3213.89 M 4133.2 3212.54 L 4133.2 3208.86 M 4131.77 3207.31 L 4131.57 3207.31 L 4131.16 3207.1 L 4130.95 3206.9 L 4130.75 3206.49 L 4130.75 3205.67 L 4130.95 3205.26 L 4131.16 3205.06 L 4131.57 3204.85 L 4131.98 3204.85 L 4132.39 3205.06 L 4133 3205.46 L 4135.04 3207.51 L 4135.04 3204.65 M 4134.02 3203.09 L 4134.23 3203.3 L 4134.43 3203.09 L 4134.23 3202.89 L 4134.02 3203.09 M 4130.75 3199.08 L 4130.75 3201.13 L 4132.59 3201.33 L 4132.39 3201.13 L 4132.18 3200.51 L 4132.18 3199.9 L 4132.39 3199.29 L 4132.79 3198.88 L 4133.41 3198.67 L 4133.82 3198.67 L 4134.43 3198.88 L 4134.84 3199.29 L 4135.04 3199.9 L 4135.04 3200.51 L 4134.84 3201.13 L 4134.64 3201.33 L 4134.23 3201.54 M 4130.75 3195.28 L 4133.61 3197.32 L 4133.61 3194.26 M 4130.75 3195.28 L 4135.04 3195.28 M 4133.2 3192.91 L 4133.2 3189.22 M 4132.18 3185.21 L 4132.79 3185.42 L 4133.2 3185.83 L 4133.41 3186.44 L 4133.41 3186.65 L 4133.2 3187.26 L 4132.79 3187.67 L 4132.18 3187.87 L 4131.98 3187.87 L 4131.36 3187.67 L 4130.95 3187.26 L 4130.75 3186.65 L 4130.75 3186.44 L 4130.95 3185.83 L 4131.36 3185.42 L 4132.18 3185.21 L 4133.2 3185.21 L 4134.23 3185.42 L 4134.84 3185.83 L 4135.04 3186.44 L 4135.04 3186.85 L 4134.84 3187.46 L 4134.43 3187.67 M 4130.75 3182.64 L 4130.95 3183.25 L 4131.57 3183.66 L 4132.59 3183.86 L 4133.2 3183.86 L 4134.23 3183.66 L 4134.84 3183.25 L 4135.04 3182.64 L 4135.04 3182.23 L 4134.84 3181.61 L 4134.23 3181.21 L 4133.2 3181 L 4132.59 3181 L 4131.57 3181.21 L 4130.95 3181.61 L 4130.75 3182.23 L 4130.75 3182.64" fill="none"  stroke-width="0.6" c_note="note_name" /></g><g c_partid="part_pcbtext" c_etype="" c_origin="4088,3177.5" c_rotation="0" c_mirror="0" id="gge5" locked="0" layerid="3" c_shapetype="group" ><path c_fontsize="4.5" c_fontfamily="" c_text="J1" d="M 4090.05 3172.96 L 4090.05 3176.23 L 4089.84 3176.85 L 4089.64 3177.05 L 4089.23 3177.25 L 4088.82 3177.25 L 4088.41 3177.05 L 4088.2 3176.85 L 4088 3176.23 L 4088 3175.82 M 4091.4 3173.78 L 4091.8 3173.57 L 4092.42 3172.96 L 4092.42 3177.25" fill="none"  stroke-width="0.6" c_note="note_pre" /></g><g c_partid="part_pcbtext" c_etype="" c_origin="4078.7,3298.29" c_rotation="0" c_mirror="0" id="gge46" locked="0" layerid="3" c_shapetype="group" display="none"><path c_fontsize="4.5" c_fontfamily="" c_text="M02" d="M 4078.6999 3293.75 L 4078.6999 3298.04 M 4078.6999 3293.75 L 4080.3399 3298.04 M 4081.9699 3293.75 L 4080.3399 3298.04 M 4081.9699 3293.75 L 4081.9699 3298.04 M 4084.5499 3293.75 L 4083.9399 3293.95 L 4083.5299 3294.57 L 4083.3199 3295.59 L 4083.3199 3296.2 L 4083.5299 3297.23 L 4083.9399 3297.84 L 4084.5499 3298.04 L 4084.9599 3298.04 L 4085.5699 3297.84 L 4085.9799 3297.23 L 4086.1899 3296.2 L 4086.1899 3295.59 L 4085.9799 3294.57 L 4085.5699 3293.95 L 4084.9599 3293.75 L 4084.5499 3293.75 M 4087.7399 3294.77 L 4087.7399 3294.57 L 4087.9499 3294.16 L 4088.1499 3293.95 L 4088.5599 3293.75 L 4089.3799 3293.75 L 4089.7899 3293.95 L 4089.9899 3294.16 L 4090.1999 3294.57 L 4090.1999 3294.98 L 4089.9899 3295.39 L 4089.5799 3296 L 4087.5399 3298.04 L 4090.3999 3298.04" fill="none"  stroke-width="0.6" c_note="note_name" /></g><g c_partid="part_pcbtext" c_etype="" c_origin="4090.4,3286.5" c_rotation="180" c_mirror="0" id="gge48" locked="0" layerid="3" c_shapetype="group" display="none"><path c_fontsize="4.5" c_fontfamily="" c_text="JP1" d="M 4088.35 3291.04 L 4088.35 3287.77 L 4088.56 3287.15 L 4088.76 3286.95 L 4089.17 3286.75 L 4089.58 3286.75 L 4089.99 3286.95 L 4090.2 3287.15 L 4090.4 3287.77 L 4090.4 3288.18 M 4087 3291.04 L 4087 3286.75 M 4087 3291.04 L 4085.16 3291.04 L 4084.55 3290.84 L 4084.35 3290.63 L 4084.14 3290.22 L 4084.14 3289.61 L 4084.35 3289.2 L 4084.55 3289 L 4085.16 3288.79 L 4087 3288.79 M 4082.79 3290.22 L 4082.38 3290.43 L 4081.77 3291.04 L 4081.77 3286.75" fill="none"  stroke-width="0.6" c_note="note_pre" /></g><g c_partid="part_pcbtext" c_etype="" c_origin="4092.504,3043.508" c_rotation="0" c_mirror="0" id="gge76" locked="0" layerid="3" c_shapetype="group" display="none"><path c_fontsize="4.5" c_fontfamily="" c_text="M5Stack-STAMP-PICO" d="M 4092.5037 3038.9679 L 4092.5037 3043.2579 M 4092.5037 3038.9679 L 4094.1437 3043.2579 M 4095.7737 3038.9679 L 4094.1437 3043.2579 M 4095.7737 3038.9679 L 4095.7737 3043.2579 M 4099.5837 3038.9679 L 4097.5337 3038.9679 L 4097.3337 3040.8079 L 4097.5337 3040.6079 L 4098.1537 3040.3979 L 4098.7637 3040.3979 L 4099.3737 3040.6079 L 4099.7837 3041.0079 L 4099.9937 3041.6279 L 4099.9937 3042.0379 L 4099.7837 3042.6479 L 4099.3737 3043.0579 L 4098.7637 3043.2579 L 4098.1537 3043.2579 L 4097.5337 3043.0579 L 4097.3337 3042.8579 L 4097.1237 3042.4479 M 4104.2037 3039.5779 L 4103.7937 3039.1679 L 4103.1837 3038.9679 L 4102.3637 3038.9679 L 4101.7537 3039.1679 L 4101.3437 3039.5779 L 4101.3437 3039.9879 L 4101.5437 3040.3979 L 4101.7537 3040.6079 L 4102.1537 3040.8079 L 4103.3837 3041.2179 L 4103.7937 3041.4179 L 4104.0037 3041.6279 L 4104.2037 3042.0379 L 4104.2037 3042.6479 L 4103.7937 3043.0579 L 4103.1837 3043.2579 L 4102.3637 3043.2579 L 4101.7537 3043.0579 L 4101.3437 3042.6479 M 4106.1637 3038.9679 L 4106.1637 3042.4479 L 4106.3737 3043.0579 L 4106.7837 3043.2579 L 4107.1937 3043.2579 M 4105.5537 3040.3979 L 4106.9837 3040.3979 M 4110.9937 3040.3979 L 4110.9937 3043.2579 M 4110.9937 3041.0079 L 4110.5837 3040.6079 L 4110.1737 3040.3979 L 4109.5637 3040.3979 L 4109.1537 3040.6079 L 4108.7437 3041.0079 L 4108.5437 3041.6279 L 4108.5437 3042.0379 L 4108.7437 3042.6479 L 4109.1537 3043.0579 L 4109.5637 3043.2579 L 4110.1737 3043.2579 L 4110.5837 3043.0579 L 4110.9937 3042.6479 M 4114.8037 3041.0079 L 4114.3937 3040.6079 L 4113.9837 3040.3979 L 4113.3637 3040.3979 L 4112.9537 3040.6079 L 4112.5537 3041.0079 L 4112.3437 3041.6279 L 4112.3437 3042.0379 L 4112.5537 3042.6479 L 4112.9537 3043.0579 L 4113.3637 3043.2579 L 4113.9837 3043.2579 L 4114.3937 3043.0579 L 4114.8037 3042.6479 M 4116.1537 3038.9679 L 4116.1537 3043.2579 M 4118.1937 3040.3979 L 4116.1537 3042.4479 M 4116.9637 3041.6279 L 4118.4037 3043.2579 M 4119.7537 3041.4179 L 4123.4337 3041.4179 M 4127.6437 3039.5779 L 4127.2337 3039.1679 L 4126.6237 3038.9679 L 4125.8037 3038.9679 L 4125.1937 3039.1679 L 4124.7837 3039.5779 L 4124.7837 3039.9879 L 4124.9837 3040.3979 L 4125.1937 3040.6079 L 4125.6037 3040.8079 L 4126.8237 3041.2179 L 4127.2337 3041.4179 L 4127.4437 3041.6279 L 4127.6437 3042.0379 L 4127.6437 3042.6479 L 4127.2337 3043.0579 L 4126.6237 3043.2579 L 4125.8037 3043.2579 L 4125.1937 3043.0579 L 4124.7837 3042.6479 M 4130.4237 3038.9679 L 4130.4237 3043.2579 M 4128.9937 3038.9679 L 4131.8537 3038.9679 M 4134.8437 3038.9679 L 4133.2037 3043.2579 M 4134.8437 3038.9679 L 4136.4837 3043.2579 M 4133.8237 3041.8279 L 4135.8637 3041.8279 M 4137.8337 3038.9679 L 4137.8337 3043.2579 M 4137.8337 3038.9679 L 4139.4637 3043.2579 M 4141.1037 3038.9679 L 4139.4637 3043.2579 M 4141.1037 3038.9679 L 4141.1037 3043.2579 M 4142.4537 3038.9679 L 4142.4537 3043.2579 M 4142.4537 3038.9679 L 4144.2937 3038.9679 L 4144.9037 3039.1679 L 4145.1137 3039.3779 L 4145.3137 3039.7879 L 4145.3137 3040.3979 L 4145.1137 3040.8079 L 4144.9037 3041.0079 L 4144.2937 3041.2179 L 4142.4537 3041.2179 M 4146.6637 3041.4179 L 4150.3537 3041.4179 M 4151.7037 3038.9679 L 4151.7037 3043.2579 M 4151.7037 3038.9679 L 4153.5437 3038.9679 L 4154.1537 3039.1679 L 4154.3537 3039.3779 L 4154.5637 3039.7879 L 4154.5637 3040.3979 L 4154.3537 3040.8079 L 4154.1537 3041.0079 L 4153.5437 3041.2179 L 4151.7037 3041.2179 M 4155.9137 3038.9679 L 4155.9137 3043.2579 M 4160.3337 3039.9879 L 4160.1237 3039.5779 L 4159.7137 3039.1679 L 4159.3037 3038.9679 L 4158.4937 3038.9679 L 4158.0837 3039.1679 L 4157.6737 3039.5779 L 4157.4637 3039.9879 L 4157.2637 3040.6079 L 4157.2637 3041.6279 L 4157.4637 3042.2379 L 4157.6737 3042.6479 L 4158.0837 3043.0579 L 4158.4937 3043.2579 L 4159.3037 3043.2579 L 4159.7137 3043.0579 L 4160.1237 3042.6479 L 4160.3337 3042.2379 M 4162.9037 3038.9679 L 4162.5037 3039.1679 L 4162.0937 3039.5779 L 4161.8837 3039.9879 L 4161.6837 3040.6079 L 4161.6837 3041.6279 L 4161.8837 3042.2379 L 4162.0937 3042.6479 L 4162.5037 3043.0579 L 4162.9037 3043.2579 L 4163.7237 3043.2579 L 4164.1337 3043.0579 L 4164.5437 3042.6479 L 4164.7537 3042.2379 L 4164.9537 3041.6279 L 4164.9537 3040.6079 L 4164.7537 3039.9879 L 4164.5437 3039.5779 L 4164.1337 3039.1679 L 4163.7237 3038.9679 L 4162.9037 3038.9679" fill="none"  stroke-width="0.6" c_note="note_name" /></g><g c_partid="part_pcbtext" c_etype="" c_origin="4092.504,3050.508" c_rotation="0" c_mirror="0" id="gge78" locked="0" layerid="3" c_shapetype="group" display="none"><path c_fontsize="4.5" c_fontfamily="" c_text="U1" d="M 4092.5037 3045.9679 L 4092.5037 3049.0379 L 4092.7037 3049.6479 L 4093.1137 3050.0579 L 4093.7337 3050.2579 L 4094.1437 3050.2579 L 4094.7537 3050.0579 L 4095.1637 3049.6479 L 4095.3637 3049.0379 L 4095.3637 3045.9679 M 4096.7137 3046.7879 L 4097.1237 3046.5779 L 4097.7437 3045.9679 L 4097.7437 3050.2579" fill="none"  stroke-width="0.6" c_note="note_pre" /></g><g c_partid="part_pcbtext" c_etype="" c_origin="4067,3132.261" c_rotation="360" c_mirror="0" id="gge182" locked="1" layerid="3" c_shapetype="group" ><path c_fontsize="4.72441" c_fontfamily="" c_text="5V" d="M 4069.574 3127.4971 L 4067.434 3127.4971 L 4067.214 3129.4271 L 4067.434 3129.2071 L 4068.074 3128.9971 L 4068.714 3128.9971 L 4069.364 3129.2071 L 4069.794 3129.6371 L 4070.004 3130.2871 L 4070.004 3130.7171 L 4069.794 3131.3571 L 4069.364 3131.7871 L 4068.714 3132.0071 L 4068.074 3132.0071 L 4067.434 3131.7871 L 4067.214 3131.5771 L 4067.004 3131.1471 M 4071.424 3127.4971 L 4073.144 3132.0071 M 4074.864 3127.4971 L 4073.144 3132.0071" fill="none"  stroke-width="1"  /></g><g c_partid="part_pcbtext" c_etype="" c_origin="4067,3142.5" c_rotation="360" c_mirror="0" id="gge184" locked="1" layerid="3" c_shapetype="group" ><path c_fontsize="4.72441" c_fontfamily="" c_text="G" d="M 4070.224 3138.81 L 4070.004 3138.38 L 4069.574 3137.95 L 4069.144 3137.73 L 4068.284 3137.73 L 4067.864 3137.95 L 4067.434 3138.38 L 4067.214 3138.81 L 4067.004 3139.45 L 4067.004 3140.52 L 4067.214 3141.17 L 4067.434 3141.6 L 4067.864 3142.03 L 4068.284 3142.24 L 4069.144 3142.24 L 4069.574 3142.03 L 4070.004 3141.6 L 4070.224 3141.17 L 4070.224 3140.52 M 4069.144 3140.52 L 4070.224 3140.52" fill="none"  stroke-width="1"  /></g><g c_partid="part_pcbtext" c_etype="" c_origin="4067,3122.261" c_rotation="360" c_mirror="0" id="gge186" locked="1" layerid="3" c_shapetype="group" ><path c_fontsize="4.72441" c_fontfamily="" c_text="25" d="M 4067.2139 3118.5671 L 4067.2139 3118.3571 L 4067.4339 3117.9271 L 4067.6439 3117.7071 L 4068.0739 3117.4971 L 4068.9339 3117.4971 L 4069.3639 3117.7071 L 4069.5739 3117.9271 L 4069.7939 3118.3571 L 4069.7939 3118.7871 L 4069.5739 3119.2071 L 4069.1439 3119.8571 L 4067.0039 3122.0071 L 4070.0039 3122.0071 M 4074.0039 3117.4971 L 4071.8539 3117.4971 L 4071.6339 3119.4271 L 4071.8539 3119.2071 L 4072.4939 3118.9971 L 4073.1439 3118.9971 L 4073.7839 3119.2071 L 4074.2139 3119.6371 L 4074.4339 3120.2871 L 4074.4339 3120.7171 L 4074.2139 3121.3571 L 4073.7839 3121.7871 L 4073.1439 3122.0071 L 4072.4939 3122.0071 L 4071.8539 3121.7871 L 4071.6339 3121.5771 L 4071.4239 3121.1471" fill="none"  stroke-width="1"  /></g><g c_partid="part_pcbtext" c_etype="" c_origin="4067,3112.261" c_rotation="360" c_mirror="0" id="gge188" locked="1" layerid="3" c_shapetype="group" ><path c_fontsize="4.72441" c_fontfamily="" c_text="22" d="M 4067.2139 3108.5671 L 4067.2139 3108.3571 L 4067.4339 3107.9271 L 4067.6439 3107.7071 L 4068.0739 3107.4971 L 4068.9339 3107.4971 L 4069.3639 3107.7071 L 4069.5739 3107.9271 L 4069.7939 3108.3571 L 4069.7939 3108.7871 L 4069.5739 3109.2071 L 4069.1439 3109.8571 L 4067.0039 3112.0071 L 4070.0039 3112.0071 M 4071.6339 3108.5671 L 4071.6339 3108.3571 L 4071.8539 3107.9271 L 4072.0639 3107.7071 L 4072.4939 3107.4971 L 4073.3539 3107.4971 L 4073.7839 3107.7071 L 4074.0039 3107.9271 L 4074.2139 3108.3571 L 4074.2139 3108.7871 L 4074.0039 3109.2071 L 4073.5739 3109.8571 L 4071.4239 3112.0071 L 4074.4339 3112.0071" fill="none"  stroke-width="1"  /></g><g c_partid="part_pcbtext" c_etype="" c_origin="4067,3102.261" c_rotation="360" c_mirror="0" id="gge190" locked="1" layerid="3" c_shapetype="group" ><path c_fontsize="4.72441" c_fontfamily="" c_text="21" d="M 4067.214 3098.5671 L 4067.214 3098.3571 L 4067.434 3097.9271 L 4067.644 3097.7071 L 4068.074 3097.4971 L 4068.934 3097.4971 L 4069.364 3097.7071 L 4069.574 3097.9271 L 4069.794 3098.3571 L 4069.794 3098.7871 L 4069.574 3099.2071 L 4069.144 3099.8571 L 4067.004 3102.0071 L 4070.004 3102.0071 M 4071.424 3098.3571 L 4071.854 3098.1371 L 4072.494 3097.4971 L 4072.494 3102.0071" fill="none"  stroke-width="1"  /></g><g c_partid="part_pcbtext" c_etype="" c_origin="4067,3092.261" c_rotation="360" c_mirror="0" id="gge192" locked="1" layerid="3" c_shapetype="group" ><path c_fontsize="4.72441" c_fontfamily="" c_text="19" d="M 4067.004 3088.3571 L 4067.434 3088.1371 L 4068.074 3087.4971 L 4068.074 3092.0071 M 4072.284 3088.9971 L 4072.064 3089.6371 L 4071.634 3090.0671 L 4070.994 3090.2871 L 4070.784 3090.2871 L 4070.134 3090.0671 L 4069.704 3089.6371 L 4069.494 3088.9971 L 4069.494 3088.7871 L 4069.704 3088.1371 L 4070.134 3087.7071 L 4070.784 3087.4971 L 4070.994 3087.4971 L 4071.634 3087.7071 L 4072.064 3088.1371 L 4072.284 3088.9971 L 4072.284 3090.0671 L 4072.064 3091.1471 L 4071.634 3091.7871 L 4070.994 3092.0071 L 4070.564 3092.0071 L 4069.924 3091.7871 L 4069.704 3091.3571" fill="none"  stroke-width="1"  /></g><g c_partid="part_pcbtext" c_etype="" c_origin="4067,3082.261" c_rotation="360" c_mirror="0" id="gge194" locked="1" layerid="3" c_shapetype="group" ><path c_fontsize="4.72441" c_fontfamily="" c_text="18" d="M 4067.004 3078.3571 L 4067.434 3078.1371 L 4068.074 3077.4971 L 4068.074 3082.0071 M 4070.564 3077.4971 L 4069.924 3077.7071 L 4069.704 3078.1371 L 4069.704 3078.5671 L 4069.924 3078.9971 L 4070.354 3079.2071 L 4071.214 3079.4271 L 4071.854 3079.6371 L 4072.284 3080.0671 L 4072.494 3080.4971 L 4072.494 3081.1471 L 4072.284 3081.5771 L 4072.064 3081.7871 L 4071.424 3082.0071 L 4070.564 3082.0071 L 4069.924 3081.7871 L 4069.704 3081.5771 L 4069.494 3081.1471 L 4069.494 3080.4971 L 4069.704 3080.0671 L 4070.134 3079.6371 L 4070.784 3079.4271 L 4071.634 3079.2071 L 4072.064 3078.9971 L 4072.284 3078.5671 L 4072.284 3078.1371 L 4072.064 3077.7071 L 4071.424 3077.4971 L 4070.564 3077.4971" fill="none"  stroke-width="1"  /></g><g c_partid="part_pcbtext" c_etype="" c_origin="4067,3072.261" c_rotation="360" c_mirror="0" id="gge196" locked="1" layerid="3" c_shapetype="group" ><path c_fontsize="4.72441" c_fontfamily="" c_text="36" d="M 4067.4339 3067.4971 L 4069.7939 3067.4971 L 4068.5039 3069.2071 L 4069.1439 3069.2071 L 4069.5739 3069.4271 L 4069.7939 3069.6371 L 4070.0039 3070.2871 L 4070.0039 3070.7171 L 4069.7939 3071.3571 L 4069.3639 3071.7871 L 4068.7139 3072.0071 L 4068.0739 3072.0071 L 4067.4339 3071.7871 L 4067.2139 3071.5771 L 4067.0039 3071.1471 M 4074.0039 3068.1371 L 4073.7839 3067.7071 L 4073.1439 3067.4971 L 4072.7139 3067.4971 L 4072.0639 3067.7071 L 4071.6339 3068.3571 L 4071.4239 3069.4271 L 4071.4239 3070.4971 L 4071.6339 3071.3571 L 4072.0639 3071.7871 L 4072.7139 3072.0071 L 4072.9239 3072.0071 L 4073.5739 3071.7871 L 4074.0039 3071.3571 L 4074.2139 3070.7171 L 4074.2139 3070.4971 L 4074.0039 3069.8571 L 4073.5739 3069.4271 L 4072.9239 3069.2071 L 4072.7139 3069.2071 L 4072.0639 3069.4271 L 4071.6339 3069.8571 L 4071.4239 3070.4971" fill="none"  stroke-width="1"  /></g><g c_partid="part_pcbtext" c_etype="" c_origin="4067,3062.261" c_rotation="360" c_mirror="0" id="gge198" locked="1" layerid="3" c_shapetype="group" ><path c_fontsize="4.72441" c_fontfamily="" c_text="26" d="M 4067.2139 3058.5671 L 4067.2139 3058.3571 L 4067.4339 3057.9271 L 4067.6439 3057.7071 L 4068.0739 3057.4971 L 4068.9339 3057.4971 L 4069.3639 3057.7071 L 4069.5739 3057.9271 L 4069.7939 3058.3571 L 4069.7939 3058.7871 L 4069.5739 3059.2071 L 4069.1439 3059.8571 L 4067.0039 3062.0071 L 4070.0039 3062.0071 M 4074.0039 3058.1371 L 4073.7839 3057.7071 L 4073.1439 3057.4971 L 4072.7139 3057.4971 L 4072.0639 3057.7071 L 4071.6339 3058.3571 L 4071.4239 3059.4271 L 4071.4239 3060.4971 L 4071.6339 3061.3571 L 4072.0639 3061.7871 L 4072.7139 3062.0071 L 4072.9239 3062.0071 L 4073.5739 3061.7871 L 4074.0039 3061.3571 L 4074.2139 3060.7171 L 4074.2139 3060.4971 L 4074.0039 3059.8571 L 4073.5739 3059.4271 L 4072.9239 3059.2071 L 4072.7139 3059.2071 L 4072.0639 3059.4271 L 4071.6339 3059.8571 L 4071.4239 3060.4971" fill="none"  stroke-width="1"  /></g><g c_partid="part_pcbtext" c_etype="" c_origin="4105.5,3092" c_rotation="360" c_mirror="0" id="gge200" locked="1" layerid="3" c_shapetype="group" ><path c_fontsize="4.72441" c_fontfamily="" c_text="3V3" d="M 4105.933 3087.23 L 4108.293 3087.23 L 4107.003 3088.95 L 4107.643 3088.95 L 4108.073 3089.17 L 4108.293 3089.38 L 4108.503 3090.02 L 4108.503 3090.45 L 4108.293 3091.1 L 4107.863 3091.53 L 4107.213 3091.74 L 4106.573 3091.74 L 4105.933 3091.53 L 4105.713 3091.31 L 4105.503 3090.88 M 4109.923 3087.23 L 4111.643 3091.74 M 4113.363 3087.23 L 4111.643 3091.74 M 4115.203 3087.23 L 4117.573 3087.23 L 4116.283 3088.95 L 4116.923 3088.95 L 4117.353 3089.17 L 4117.573 3089.38 L 4117.783 3090.02 L 4117.783 3090.45 L 4117.573 3091.1 L 4117.143 3091.53 L 4116.493 3091.74 L 4115.853 3091.74 L 4115.203 3091.53 L 4114.993 3091.31 L 4114.773 3090.88" fill="none"  stroke-width="1"  /></g><g c_partid="part_pcbtext" c_etype="" c_origin="4116.402,3102.264" c_rotation="360" c_mirror="0" id="gge202" locked="1" layerid="3" c_shapetype="group" ><path c_fontsize="4.72441" c_fontfamily="" c_text="1" d="M 4116.399 3098.3571 L 4116.829 3098.1371 L 4117.479 3097.4971 L 4117.479 3102.0071" fill="none"  stroke-width="1"  /></g><g c_partid="part_pcbtext" c_etype="" c_origin="4114.471,3112.266" c_rotation="360" c_mirror="0" id="gge204" locked="1" layerid="3" c_shapetype="group" ><path c_fontsize="4.72441" c_fontfamily="" c_text="3" d="M 4114.899 3107.497 L 4117.259 3107.497 L 4115.969 3109.217 L 4116.619 3109.217 L 4117.049 3109.427 L 4117.259 3109.647 L 4117.479 3110.287 L 4117.479 3110.717 L 4117.259 3111.367 L 4116.829 3111.797 L 4116.189 3112.007 L 4115.549 3112.007 L 4114.899 3111.797 L 4114.689 3111.577 L 4114.469 3111.147" fill="none"  stroke-width="1"  /></g><g c_partid="part_pcbtext" c_etype="" c_origin="4110.26,3122.269" c_rotation="360" c_mirror="0" id="gge206" locked="1" layerid="3" c_shapetype="group" ><path c_fontsize="4.72441" c_fontfamily="" c_text="EN" d="M 4110.2591 3117.497 L 4110.2591 3122.007 M 4110.2591 3117.497 L 4113.0491 3117.497 M 4110.2591 3119.647 L 4111.9791 3119.647 M 4110.2591 3122.007 L 4113.0491 3122.007 M 4114.4691 3117.497 L 4114.4691 3122.007 M 4114.4691 3117.497 L 4117.4791 3122.007 M 4117.4791 3117.497 L 4117.4791 3122.007" fill="none"  stroke-width="1"  /></g><g c_partid="part_pcbtext" c_etype="" c_origin="4114.471,3132.265" c_rotation="360" c_mirror="0" id="gge208" locked="1" layerid="3" c_shapetype="group" ><path c_fontsize="4.72441" c_fontfamily="" c_text="0" d="M 4115.759 3127.4971 L 4115.119 3127.7171 L 4114.689 3128.3571 L 4114.469 3129.4271 L 4114.469 3130.0771 L 4114.689 3131.1471 L 4115.119 3131.7971 L 4115.759 3132.0071 L 4116.189 3132.0071 L 4116.829 3131.7971 L 4117.259 3131.1471 L 4117.479 3130.0771 L 4117.479 3129.4271 L 4117.259 3128.3571 L 4116.829 3127.7171 L 4116.189 3127.4971 L 4115.759 3127.4971" fill="none"  stroke-width="1"  /></g><g c_partid="part_pcbtext" c_etype="" c_origin="4114.5,3142" c_rotation="360" c_mirror="0" id="gge210" locked="1" layerid="3" c_shapetype="group" ><path c_fontsize="4.72441" c_fontfamily="" c_text="G" d="M 4117.725 3138.303 L 4117.505 3137.873 L 4117.075 3137.443 L 4116.645 3137.233 L 4115.785 3137.233 L 4115.355 3137.443 L 4114.925 3137.873 L 4114.715 3138.303 L 4114.505 3138.953 L 4114.505 3140.023 L 4114.715 3140.673 L 4114.925 3141.093 L 4115.355 3141.523 L 4115.785 3141.743 L 4116.645 3141.743 L 4117.075 3141.523 L 4117.505 3141.093 L 4117.725 3140.673 L 4117.725 3140.023 M 4116.645 3140.023 L 4117.725 3140.023" fill="none"  stroke-width="1"  /></g><g c_partid="part_pcbtext" c_etype="" c_origin="4100.5,3141" c_rotation="90" c_mirror="0" id="gge212" locked="1" layerid="3" c_shapetype="group" ><path c_fontsize="4.72441" c_fontfamily="" c_text="32" d="M 4095.7337 3140.5689 L 4095.7337 3138.2089 L 4097.4537 3139.4989 L 4097.4537 3138.8489 L 4097.6637 3138.4189 L 4097.8837 3138.2089 L 4098.5237 3137.9889 L 4098.9537 3137.9889 L 4099.5937 3138.2089 L 4100.0237 3138.6389 L 4100.2437 3139.2789 L 4100.2437 3139.9289 L 4100.0237 3140.5689 L 4099.8137 3140.7889 L 4099.3837 3140.9989 M 4096.8037 3136.3589 L 4096.5937 3136.3589 L 4096.1637 3136.1489 L 4095.9437 3135.9289 L 4095.7337 3135.4989 L 4095.7337 3134.6389 L 4095.9437 3134.2189 L 4096.1637 3133.9989 L 4096.5937 3133.7889 L 4097.0237 3133.7889 L 4097.4537 3133.9989 L 4098.0937 3134.4289 L 4100.2437 3136.5789 L 4100.2437 3133.5689" fill="none"  stroke-width="1"  /></g><g c_partid="part_pcbtext" c_etype="" c_origin="4110.5,3141" c_rotation="90" c_mirror="0" id="gge214" locked="1" layerid="3" c_shapetype="group" ><path c_fontsize="4.72441" c_fontfamily="" c_text="33" d="M 4105.7343 3140.5714 L 4105.7343 3138.2114 L 4107.4543 3139.5014 L 4107.4543 3138.8514 L 4107.6643 3138.4214 L 4107.8843 3138.2114 L 4108.5243 3137.9914 L 4108.9543 3137.9914 L 4109.5943 3138.2114 L 4110.0243 3138.6414 L 4110.2443 3139.2814 L 4110.2443 3139.9214 L 4110.0243 3140.5714 L 4109.8143 3140.7814 L 4109.3843 3141.0014 M 4105.7343 3136.1514 L 4105.7343 3133.7814 L 4107.4543 3135.0714 L 4107.4543 3134.4314 L 4107.6643 3134.0014 L 4107.8843 3133.7814 L 4108.5243 3133.5714 L 4108.9543 3133.5714 L 4109.5943 3133.7814 L 4110.0243 3134.2114 L 4110.2443 3134.8614 L 4110.2443 3135.5014 L 4110.0243 3136.1514 L 4109.8143 3136.3614 L 4109.3843 3136.5714" fill="none"  stroke-width="1"  /></g><g c_partid="part_pcbtext" c_etype="" c_origin="4090.5,3141" c_rotation="90" c_mirror="0" id="gge216" locked="1" layerid="3" c_shapetype="group" ><path c_fontsize="4.72441" c_fontfamily="" c_text="5V" d="M 4085.7305 3138.4261 L 4085.7305 3140.5661 L 4087.6705 3140.7861 L 4087.4505 3140.5661 L 4087.2405 3139.9261 L 4087.2405 3139.2861 L 4087.4505 3138.6361 L 4087.8805 3138.2061 L 4088.5205 3137.9961 L 4088.9505 3137.9961 L 4089.6005 3138.2061 L 4090.0305 3138.6361 L 4090.2405 3139.2861 L 4090.2405 3139.9261 L 4090.0305 3140.5661 L 4089.8105 3140.7861 L 4089.3805 3140.9961 M 4085.7305 3136.5761 L 4090.2405 3134.8561 M 4085.7305 3133.1361 L 4090.2405 3134.8561" fill="none"  stroke-width="1"  /></g><g c_partid="part_pcbtext" c_etype="" c_origin="4080.5,3141" c_rotation="90" c_mirror="0" id="gge218" locked="1" layerid="3" c_shapetype="group" ><path c_fontsize="4.72441" c_fontfamily="" c_text="G" d="M 4076.81 3137.7836 L 4076.38 3137.9936 L 4075.95 3138.4236 L 4075.73 3138.8536 L 4075.73 3139.7136 L 4075.95 3140.1436 L 4076.38 3140.5736 L 4076.81 3140.7836 L 4077.45 3141.0036 L 4078.52 3141.0036 L 4079.17 3140.7836 L 4079.6 3140.5736 L 4080.03 3140.1436 L 4080.24 3139.7136 L 4080.24 3138.8536 L 4080.03 3138.4236 L 4079.6 3137.9936 L 4079.17 3137.7836 L 4078.52 3137.7836 M 4078.52 3138.8536 L 4078.52 3137.7836" fill="none"  stroke-width="1"  /></g><g c_partid="part_pcbtext" c_etype="pinpart" c_origin="4081,3063" c_rotation="0" c_mirror="0" id="gge220" locked="1" layerid="3" c_shapetype="group" ><path c_fontsize="6.6929" c_fontfamily="" c_text="M5STAMP" d="M 4081.0037 3056.2479 L 4081.0037 3062.6379 M 4081.0037 3056.2479 L 4083.4337 3062.6379 M 4085.8637 3056.2479 L 4083.4337 3062.6379 M 4085.8637 3056.2479 L 4085.8637 3062.6379 M 4091.5237 3056.2479 L 4088.4837 3056.2479 L 4088.1837 3058.9879 L 4088.4837 3058.6779 L 4089.3937 3058.3779 L 4090.3137 3058.3779 L 4091.2237 3058.6779 L 4091.8337 3059.2879 L 4092.1337 3060.1979 L 4092.1337 3060.8079 L 4091.8337 3061.7179 L 4091.2237 3062.3279 L 4090.3137 3062.6379 L 4089.3937 3062.6379 L 4088.4837 3062.3279 L 4088.1837 3062.0279 L 4087.8737 3061.4179 M 4098.4037 3057.1579 L 4097.7937 3056.5479 L 4096.8837 3056.2479 L 4095.6637 3056.2479 L 4094.7537 3056.5479 L 4094.1437 3057.1579 L 4094.1437 3057.7679 L 4094.4437 3058.3779 L 4094.7537 3058.6779 L 4095.3637 3058.9879 L 4097.1837 3059.5879 L 4097.7937 3059.8979 L 4098.0937 3060.1979 L 4098.4037 3060.8079 L 4098.4037 3061.7179 L 4097.7937 3062.3279 L 4096.8837 3062.6379 L 4095.6637 3062.6379 L 4094.7537 3062.3279 L 4094.1437 3061.7179 M 4102.5437 3056.2479 L 4102.5437 3062.6379 M 4100.4137 3056.2479 L 4104.6637 3056.2479 M 4109.1137 3056.2479 L 4106.6737 3062.6379 M 4109.1137 3056.2479 L 4111.5437 3062.6379 M 4107.5937 3060.5079 L 4110.6337 3060.5079 M 4113.5537 3056.2479 L 4113.5537 3062.6379 M 4113.5537 3056.2479 L 4115.9837 3062.6379 M 4118.4237 3056.2479 L 4115.9837 3062.6379 M 4118.4237 3056.2479 L 4118.4237 3062.6379 M 4120.4237 3056.2479 L 4120.4237 3062.6379 M 4120.4237 3056.2479 L 4123.1637 3056.2479 L 4124.0737 3056.5479 L 4124.3837 3056.8579 L 4124.6837 3057.4679 L 4124.6837 3058.3779 L 4124.3837 3058.9879 L 4124.0737 3059.2879 L 4123.1637 3059.5879 L 4120.4237 3059.5879" fill="none"  stroke-width="0.8"  /></g><g c_partid="part_pcbtext" c_etype="pinpart" c_origin="4088.35,3075" c_rotation="0" c_mirror="0" id="gge222" locked="1" layerid="3" c_shapetype="group" ><path c_fontsize="9.8425" c_fontfamily="" c_text="PICO" d="M 4088.3486 3065.0679 L 4088.3486 3074.4679 M 4088.3486 3065.0679 L 4092.3786 3065.0679 L 4093.7186 3065.5179 L 4094.1686 3065.9579 L 4094.6086 3066.8579 L 4094.6086 3068.1979 L 4094.1686 3069.0979 L 4093.7186 3069.5379 L 4092.3786 3069.9879 L 4088.3486 3069.9879 M 4097.5686 3065.0679 L 4097.5686 3074.4679 M 4107.2286 3067.3079 L 4106.7786 3066.4079 L 4105.8886 3065.5179 L 4104.9886 3065.0679 L 4103.1986 3065.0679 L 4102.3086 3065.5179 L 4101.4186 3066.4079 L 4100.9686 3067.3079 L 4100.5186 3068.6479 L 4100.5186 3070.8879 L 4100.9686 3072.2279 L 4101.4186 3073.1179 L 4102.3086 3074.0179 L 4103.1986 3074.4679 L 4104.9886 3074.4679 L 4105.8886 3074.0179 L 4106.7786 3073.1179 L 4107.2286 3072.2279 M 4112.8686 3065.0679 L 4111.9686 3065.5179 L 4111.0786 3066.4079 L 4110.6286 3067.3079 L 4110.1786 3068.6479 L 4110.1786 3070.8879 L 4110.6286 3072.2279 L 4111.0786 3073.1179 L 4111.9686 3074.0179 L 4112.8686 3074.4679 L 4114.6586 3074.4679 L 4115.5486 3074.0179 L 4116.4486 3073.1179 L 4116.8886 3072.2279 L 4117.3386 3070.8879 L 4117.3386 3068.6479 L 4116.8886 3067.3079 L 4116.4486 3066.4079 L 4115.5486 3065.5179 L 4114.6586 3065.0679 L 4112.8686 3065.0679" fill="none"  stroke-width="1.9685"  /></g><polyline points="4003 3283 4180.1654 3283" stroke-width="3.937"  stroke-linecap="round" fill="none" layerid="10" net="S$375" id="gge379" locked="0" /><polyline points="4042.5 3046.46 4140.5 3046.46 4140.5 3203" stroke-width="3.937"  stroke-linecap="round" fill="none" layerid="10" net="" id="gge390" locked="0" /><polyline points="4042.5 3203 4042.5 3046.46" stroke-width="3.937"  stroke-linecap="round" fill="none" layerid="10" net="" id="gge313" locked="0" /><polyline points="4003 3202.73 4042.5 3203" stroke-width="3.937"  stroke-linecap="round" fill="none" layerid="10" net="S$385" id="gge384" locked="0" /><polyline points="4180 3203 4140.6299 3203" stroke-width="3.937"  stroke-linecap="round" fill="none" layerid="10" net="S$389" id="gge388" locked="0" /><polyline points="4180 3282.5 4180 3203" stroke-width="3.937"  stroke-linecap="round" fill="none" layerid="10" net="S$375" id="gge374" locked="0" /><polyline points="4003 3202.73 4003 3282.5" stroke-width="3.937"  stroke-linecap="round" fill="none" layerid="10" net="S$375" id="gge377" locked="0" /><polyline points="4003 3283 4020.5 3283" stroke-width="3.937"  stroke-linecap="round" fill="none" layerid="10" net="S$375" id="gge381" locked="0" /></svg>